<?xml version="1.0" encoding="UTF-8"?>
<svg width="755px" height="756px" viewBox="0 0 755 756" version="1.1" xmlns="http://www.w3.org/2000/svg" xmlns:xlink="http://www.w3.org/1999/xlink">
    <!-- Generator: Sketch 40.1 (33804) - http://www.bohemiancoding.com/sketch -->
    <title>pad-19-logo</title>
    <desc>Created with Sketch.</desc>
    <defs>
        <path d="M377.5,754.213797 C585.987493,754.213797 755,585.377287 755,377.106898 C755,168.836509 585.987493,0 377.5,0 C169.012507,0 0,168.836509 0,377.106898 C0,585.377287 169.012507,754.213797 377.5,754.213797 Z" id="path-1"></path>
        <rect id="path-3" x="0" y="0" width="214.149077" height="390.775063"></rect>
        <mask id="mask-4" maskContentUnits="userSpaceOnUse" maskUnits="objectBoundingBox" x="0" y="0" width="214.149077" height="390.775063" fill="white">
            <use xlink:href="#path-3"></use>
        </mask>
        <polygon id="path-5" points="185.923611 243 214.149077 406.763898 0 406.763898 28.2254657 243"></polygon>
        <mask id="mask-6" maskContentUnits="userSpaceOnUse" maskUnits="objectBoundingBox" x="0" y="0" width="214.149077" height="163.763898" fill="white">
            <use xlink:href="#path-5"></use>
        </mask>
    </defs>
    <g id="Work-Page" stroke="none" stroke-width="1" fill="none" fill-rule="evenodd">
        <g id="pad-19-logo">
            <g id="Logo">
                <g id="Cicular-Mask" transform="translate(0.000000, 0.535466)">
                    <mask id="mask-2" fill="white">
                        <use xlink:href="#path-1"></use>
                    </mask>
                    <use id="Mask" fill="#4990E2" xlink:href="#path-1"></use>
                    <g id="Blast" mask="url(#mask-2)">
                        <g transform="translate(-62.000000, 416.000000)">
                            <g transform="translate(10.000000, 5.000000)">
                                <path d="M278.697694,282.276263 C344.001526,282.276263 396.940741,229.407584 396.940741,164.190763 C396.940741,98.9739422 344.001526,46.1052632 278.697694,46.1052632 C213.393863,46.1052632 160.454647,98.9739422 160.454647,164.190763 C160.454647,229.407584 213.393863,282.276263 278.697694,282.276263 Z" id="Oval-3" fill="#E7E7E7"></path>
                                <path d="M278.697694,400.420999 C344.001526,400.420999 396.940741,347.55232 396.940741,282.3355 C396.940741,217.118679 344.001526,164.25 278.697694,164.25 C213.393863,164.25 160.454647,217.118679 160.454647,282.3355 C160.454647,347.55232 213.393863,400.420999 278.697694,400.420999 Z" id="Oval-3" fill="#E7E7E7"></path>
                                <path d="M738.923898,236.170999 C804.227729,236.170999 857.166945,183.30232 857.166945,118.0855 C857.166945,52.8686791 804.227729,1.42108547e-14 738.923898,1.42108547e-14 C673.620066,1.42108547e-14 620.680851,52.8686791 620.680851,118.0855 C620.680851,183.30232 673.620066,236.170999 738.923898,236.170999 Z" id="Oval-3" fill="#E7E7E7"></path>
                                <path d="M118.243047,282.276263 C183.546878,282.276263 236.486094,229.407584 236.486094,164.190763 C236.486094,98.9739422 183.546878,46.1052632 118.243047,46.1052632 C52.9392153,46.1052632 2.84217094e-14,98.9739422 2.84217094e-14,164.190763 C2.84217094e-14,229.407584 52.9392153,282.276263 118.243047,282.276263 Z" id="Oval-3" fill="#E7E7E7"></path>
                                <path d="M620.88873,400.612601 C711.742748,400.612601 785.394481,327.059001 785.394481,236.326037 C785.394481,145.593074 711.742748,72.0394737 620.88873,72.0394737 C530.034712,72.0394737 456.382979,145.593074 456.382979,236.326037 C456.382979,327.059001 530.034712,400.612601 620.88873,400.612601 Z" id="Oval-5" fill="#E7E7E7"></path>
                                <path d="M456.041573,437.99256 C531.734347,437.99256 593.095464,376.713201 593.095464,301.12128 C593.095464,225.529359 531.734347,164.25 456.041573,164.25 C380.348799,164.25 318.987682,225.529359 318.987682,301.12128 C318.987682,376.713201 380.348799,437.99256 456.041573,437.99256 Z" id="Oval-6" fill="#E7E7E7"></path>
                            </g>
                        </g>
                    </g>
                    <g id="Main-Stage" mask="url(#mask-2)">
                        <g transform="translate(270.000000, 472.000000)">
                            <g>
                                <g id="Group-4" transform="translate(0.000000, 0.111147)">
                                    <use id="Rectangle" stroke="#232323" mask="url(#mask-4)" stroke-width="8" fill="#D8D8D8" xlink:href="#path-3"></use>
                                    <rect id="Rectangle-6" fill-opacity="0.249943388" fill="#F6A623" x="3.98416887" y="3.3769867" width="206.180739" height="33.7414889"></rect>
                                </g>
                            </g>
                        </g>
                    </g>
                    <g id="Space-Craft" mask="url(#mask-2)">
                        <g transform="translate(270.000000, 65.000000)">
                            <g>
                                <use id="Gemeni-Service-Module" stroke="#232323" mask="url(#mask-6)" stroke-width="8" fill="#F1F1F1" xlink:href="#path-5"></use>
                                <g id="Gemeni-3" transform="translate(27.985391, 0.000000)" fill="#232323">
                                    <polygon id="Rectangle-3" points="114.523691 120.721406 158.424168 243.544329 0.308917356 243.544329 44.2093945 120.721406"></polygon>
                                    <rect id="Rectangle-4" x="44.1373553" y="69.1570515" width="70.4583749" height="52.5593591"></rect>
                                    <polygon id="Rectangle-5" points="106.081857 0 114.59573 69.7103079 44.1373553 69.7103079 52.6512282 0"></polygon>
                                </g>
                            </g>
                        </g>
                    </g>
                </g>
            </g>
        </g>
    </g>
</svg>