<?xml version="1.0" encoding="UTF-8" standalone="no"?><svg xmlns="http://www.w3.org/2000/svg" xmlns:xlink="http://www.w3.org/1999/xlink" clip-rule="evenodd" stroke-miterlimit="4.00" viewBox="0 0 1024 768"><desc>SVG generated by Keynote</desc><defs></defs><g transform="matrix(1.00, 0.00, -0.00, -1.00, 0.0, 768.0)"><path d="M 0.0 768.0 L 1024.0 768.0 L 1024.0 0.0 L 0.0 0.0 Z M 0.0 768.0 " fill="#FEFFFF"></path><text xml:space="preserve" font-family="Helvetica-Light" font-size="71.0" fill="#000000" transform="matrix(1.00, 0.00, -0.00, -1.00, 287.0, 474.0)">E</text><text xml:space="preserve" font-family="Helvetica-Light" font-size="71.0" fill="#000000" transform="matrix(1.00, 0.00, -0.00, -1.00, 330.4, 474.0)">n</text><text xml:space="preserve" font-family="Helvetica-Light" font-size="71.0" fill="#000000" transform="matrix(1.00, 0.00, -0.00, -1.00, 369.9, 474.0)">j</text><text xml:space="preserve" font-family="Helvetica-Light" font-size="71.0" fill="#000000" transform="matrix(1.00, 0.00, -0.00, -1.00, 385.6, 474.0)">o</text><text xml:space="preserve" font-family="Helvetica-Light" font-size="71.0" fill="#000000" transform="matrix(1.00, 0.00, -0.00, -1.00, 425.1, 474.0)">y</text><text xml:space="preserve" font-family="Helvetica-Light" font-size="71.0" fill="#000000" transform="matrix(1.00, 0.00, -0.00, -1.00, 460.6, 474.0)"> </text><text xml:space="preserve" font-family="Helvetica-Light" font-size="71.0" fill="#000000" transform="matrix(1.00, 0.00, -0.00, -1.00, 480.3, 474.0)">w</text><text xml:space="preserve" font-family="Helvetica-Light" font-size="71.0" fill="#000000" transform="matrix(1.00, 0.00, -0.00, -1.00, 531.6, 474.0)">h</text><text xml:space="preserve" font-family="Helvetica-Light" font-size="71.0" fill="#000000" transform="matrix(1.00, 0.00, -0.00, -1.00, 571.1, 474.0)">a</text><text xml:space="preserve" font-family="Helvetica-Light" font-size="71.0" fill="#000000" transform="matrix(1.00, 0.00, -0.00, -1.00, 610.5, 474.0)">t</text><text xml:space="preserve" font-family="Helvetica-Light" font-size="71.0" fill="#000000" transform="matrix(1.00, 0.00, -0.00, -1.00, 630.3, 474.0)"> </text><text xml:space="preserve" font-family="Helvetica-Light" font-size="71.0" fill="#000000" transform="matrix(1.00, 0.00, -0.00, -1.00, 650.0, 474.0)">t</text><text xml:space="preserve" font-family="Helvetica-Light" font-size="71.0" fill="#000000" transform="matrix(1.00, 0.00, -0.00, -1.00, 669.8, 474.0)">h</text><text xml:space="preserve" font-family="Helvetica-Light" font-size="71.0" fill="#000000" transform="matrix(1.00, 0.00, -0.00, -1.00, 709.2, 474.0)">e</text><text xml:space="preserve" font-family="Helvetica-Light" font-size="71.0" fill="#000000" transform="matrix(1.00, 0.00, -0.00, -1.00, 748.7, 474.0)"> </text><text xml:space="preserve" font-family="Helvetica-Light" font-size="71.0" fill="#000000" transform="matrix(1.00, 0.00, -0.00, -1.00, 169.0, 389.0)">h</text><text xml:space="preserve" font-family="Helvetica-Light" font-size="71.0" fill="#000000" transform="matrix(1.00, 0.00, -0.00, -1.00, 208.5, 389.0)">u</text><text xml:space="preserve" font-family="Helvetica-Light" font-size="71.0" fill="#000000" transform="matrix(1.00, 0.00, -0.00, -1.00, 248.0, 389.0)">m</text><text xml:space="preserve" font-family="Helvetica-Light" font-size="71.0" fill="#000000" transform="matrix(1.00, 0.00, -0.00, -1.00, 307.1, 389.0)">b</text><text xml:space="preserve" font-family="Helvetica-Light" font-size="71.0" fill="#000000" transform="matrix(1.00, 0.00, -0.00, -1.00, 350.5, 389.0)">l</text><text xml:space="preserve" font-family="Helvetica-Light" font-size="71.0" fill="#000000" transform="matrix(1.00, 0.00, -0.00, -1.00, 366.2, 389.0)">e</text><text xml:space="preserve" font-family="Helvetica-Light" font-size="71.0" fill="#000000" transform="matrix(1.00, 0.00, -0.00, -1.00, 405.7, 389.0)"> </text><text xml:space="preserve" font-family="Helvetica-Light" font-size="71.0" fill="#000000" transform="matrix(1.00, 0.00, -0.00, -1.00, 425.5, 389.0)">p</text><text xml:space="preserve" font-family="Helvetica-Light" font-size="71.0" fill="#000000" transform="matrix(1.00, 0.00, -0.00, -1.00, 468.8, 389.0)">i</text><text xml:space="preserve" font-family="Helvetica-Light" font-size="71.0" fill="#000000" transform="matrix(1.00, 0.00, -0.00, -1.00, 484.6, 389.0)">e</text><text xml:space="preserve" font-family="Helvetica-Light" font-size="71.0" fill="#000000" transform="matrix(1.00, 0.00, -0.00, -1.00, 524.1, 389.0)"> </text><text xml:space="preserve" font-family="Helvetica-Light" font-size="71.0" fill="#000000" transform="matrix(1.00, 0.00, -0.00, -1.00, 543.8, 389.0)">g</text><text xml:space="preserve" font-family="Helvetica-Light" font-size="71.0" fill="#000000" transform="matrix(1.00, 0.00, -0.00, -1.00, 587.2, 389.0)">i</text><text xml:space="preserve" font-family="Helvetica-Light" font-size="71.0" fill="#000000" transform="matrix(1.00, 0.00, -0.00, -1.00, 603.0, 389.0)">v</text><text xml:space="preserve" font-family="Helvetica-Light" font-size="71.0" fill="#000000" transform="matrix(1.00, 0.00, -0.00, -1.00, 638.5, 389.0)">e</text><text xml:space="preserve" font-family="Helvetica-Light" font-size="71.0" fill="#000000" transform="matrix(1.00, 0.00, -0.00, -1.00, 677.9, 389.0)">s</text><text xml:space="preserve" font-family="Helvetica-Light" font-size="71.0" fill="#000000" transform="matrix(1.00, 0.00, -0.00, -1.00, 713.4, 389.0)"> </text><text xml:space="preserve" font-family="Helvetica-Light" font-size="71.0" fill="#000000" transform="matrix(1.00, 0.00, -0.00, -1.00, 733.2, 389.0)">y</text><text xml:space="preserve" font-family="Helvetica-Light" font-size="71.0" fill="#000000" transform="matrix(1.00, 0.00, -0.00, -1.00, 768.7, 389.0)">o</text><text xml:space="preserve" font-family="Helvetica-Light" font-size="71.0" fill="#000000" transform="matrix(1.00, 0.00, -0.00, -1.00, 808.1, 389.0)">u</text><text xml:space="preserve" font-family="Helvetica-Light" font-size="71.0" fill="#000000" transform="matrix(1.00, 0.00, -0.00, -1.00, 847.6, 389.0)">.</text><text xml:space="preserve" font-family="Helvetica-Light" font-size="31.0" fill="#000000" transform="matrix(1.00, 0.00, -0.00, -1.00, 788.6, 40.6)">@</text><text xml:space="preserve" font-family="Helvetica-Light" font-size="31.0" fill="#000000" transform="matrix(1.00, 0.00, -0.00, -1.00, 813.4, 40.6)">p</text><text xml:space="preserve" font-family="Helvetica-Light" font-size="31.0" fill="#000000" transform="matrix(1.00, 0.00, -0.00, -1.00, 832.3, 40.6)">e</text><text xml:space="preserve" font-family="Helvetica-Light" font-size="31.0" fill="#000000" transform="matrix(1.00, 0.00, -0.00, -1.00, 849.6, 40.6)">t</text><text xml:space="preserve" font-family="Helvetica-Light" font-size="31.0" fill="#000000" transform="matrix(1.00, 0.00, -0.00, -1.00, 858.2, 40.6)">e</text><text xml:space="preserve" font-family="Helvetica-Light" font-size="31.0" fill="#000000" transform="matrix(1.00, 0.00, -0.00, -1.00, 875.4, 40.6)">r</text><text xml:space="preserve" font-family="Helvetica-Light" font-size="31.0" fill="#000000" transform="matrix(1.00, 0.00, -0.00, -1.00, 885.7, 40.6)">r</text><text xml:space="preserve" font-family="Helvetica-Light" font-size="31.0" fill="#000000" transform="matrix(1.00, 0.00, -0.00, -1.00, 896.1, 40.6)">a</text><text xml:space="preserve" font-family="Helvetica-Light" font-size="31.0" fill="#000000" transform="matrix(1.00, 0.00, -0.00, -1.00, 913.3, 40.6)">m</text><text xml:space="preserve" font-family="Helvetica-Light" font-size="31.0" fill="#000000" transform="matrix(1.00, 0.00, -0.00, -1.00, 939.1, 40.6)">s</text><text xml:space="preserve" font-family="Helvetica-Light" font-size="31.0" fill="#000000" transform="matrix(1.00, 0.00, -0.00, -1.00, 954.6, 40.6)">i</text><text xml:space="preserve" font-family="Helvetica-Light" font-size="31.0" fill="#000000" transform="matrix(1.00, 0.00, -0.00, -1.00, 961.5, 40.6)">n</text><text xml:space="preserve" font-family="Helvetica-Light" font-size="31.0" fill="#000000" transform="matrix(1.00, 0.00, -0.00, -1.00, 978.7, 40.6)">g</text><g><clipPath id="clip-28"><path d="M 37.0 68.0 L 76.0 68.0 L 76.0 36.0 L 37.0 36.0 Z M 37.1 68.2 "></path></clipPath><g clip-path="url(#clip-28)"><g><clipPath id="clip-29"><path d="M 48.4 38.3 C 39.5 43.1 34.0 58.1 38.9 64.1 C 42.0 68.0 44.4 67.9 49.8 63.6 L 54.8 59.6 L 58.2 63.1 C 65.0 70.1 73.0 69.9 75.2 62.6 C 76.7 57.7 74.8 52.0 69.8 45.6 C 62.8 36.8 55.7 34.4 48.4 38.3 "></path></clipPath><g clip-path="url(#clip-29)"><image xlink:href="../../615F7CD4-E262-41F7-8138-806EC6AB1FAB/assets/F4423B8FC98C6914CF27899FD0B081AF.jpeg" width="125.00" height="125.00" transform="matrix(0.36, 0.00, -0.00, -0.36, 34.0, 74.0)"></image></g></g></g></g></g></svg>