<?xml version="1.0" encoding="UTF-8" standalone="no"?><svg xmlns="http://www.w3.org/2000/svg" xmlns:xlink="http://www.w3.org/1999/xlink" clip-rule="evenodd" stroke-miterlimit="4.00" viewBox="0 0 1024 768"><desc>SVG generated by Keynote</desc><defs></defs><g transform="matrix(1.00, 0.00, -0.00, -1.00, 0.0, 768.0)"><path d="M 0.0 768.0 L 1024.0 768.0 L 1024.0 0.0 L 0.0 0.0 Z M 0.0 768.0 " fill="#FEFFFF"></path><text xml:space="preserve" font-family="Helvetica-Light" font-size="31.0" fill="#000000" transform="matrix(1.00, 0.00, -0.00, -1.00, 788.6, 40.6)">@</text><text xml:space="preserve" font-family="Helvetica-Light" font-size="31.0" fill="#000000" transform="matrix(1.00, 0.00, -0.00, -1.00, 813.4, 40.6)">p</text><text xml:space="preserve" font-family="Helvetica-Light" font-size="31.0" fill="#000000" transform="matrix(1.00, 0.00, -0.00, -1.00, 832.3, 40.6)">e</text><text xml:space="preserve" font-family="Helvetica-Light" font-size="31.0" fill="#000000" transform="matrix(1.00, 0.00, -0.00, -1.00, 849.6, 40.6)">t</text><text xml:space="preserve" font-family="Helvetica-Light" font-size="31.0" fill="#000000" transform="matrix(1.00, 0.00, -0.00, -1.00, 858.2, 40.6)">e</text><text xml:space="preserve" font-family="Helvetica-Light" font-size="31.0" fill="#000000" transform="matrix(1.00, 0.00, -0.00, -1.00, 875.4, 40.6)">r</text><text xml:space="preserve" font-family="Helvetica-Light" font-size="31.0" fill="#000000" transform="matrix(1.00, 0.00, -0.00, -1.00, 885.7, 40.6)">r</text><text xml:space="preserve" font-family="Helvetica-Light" font-size="31.0" fill="#000000" transform="matrix(1.00, 0.00, -0.00, -1.00, 896.1, 40.6)">a</text><text xml:space="preserve" font-family="Helvetica-Light" font-size="31.0" fill="#000000" transform="matrix(1.00, 0.00, -0.00, -1.00, 913.3, 40.6)">m</text><text xml:space="preserve" font-family="Helvetica-Light" font-size="31.0" fill="#000000" transform="matrix(1.00, 0.00, -0.00, -1.00, 939.1, 40.6)">s</text><text xml:space="preserve" font-family="Helvetica-Light" font-size="31.0" fill="#000000" transform="matrix(1.00, 0.00, -0.00, -1.00, 954.6, 40.6)">i</text><text xml:space="preserve" font-family="Helvetica-Light" font-size="31.0" fill="#000000" transform="matrix(1.00, 0.00, -0.00, -1.00, 961.5, 40.6)">n</text><text xml:space="preserve" font-family="Helvetica-Light" font-size="31.0" fill="#000000" transform="matrix(1.00, 0.00, -0.00, -1.00, 978.7, 40.6)">g</text><g><clipPath id="clip-30"><path d="M 37.0 68.0 L 76.0 68.0 L 76.0 36.0 L 37.0 36.0 Z M 37.1 68.2 "></path></clipPath><g clip-path="url(#clip-30)"><g><clipPath id="clip-31"><path d="M 48.4 38.3 C 39.5 43.1 34.0 58.1 38.9 64.1 C 42.0 68.0 44.4 67.9 49.8 63.6 L 54.8 59.6 L 58.2 63.1 C 65.0 70.1 73.0 69.9 75.2 62.6 C 76.7 57.7 74.8 52.0 69.8 45.6 C 62.8 36.8 55.7 34.4 48.4 38.3 "></path></clipPath><g clip-path="url(#clip-31)"><image xlink:href="../../615F7CD4-E262-41F7-8138-806EC6AB1FAB/assets/F4423B8FC98C6914CF27899FD0B081AF.jpeg" width="125.00" height="125.00" transform="matrix(0.36, 0.00, -0.00, -0.36, 34.0, 74.0)"></image></g></g></g></g><text xml:space="preserve" font-family="Helvetica-Light" font-size="62.5" fill="#000000" transform="matrix(1.00, 0.00, -0.00, -1.00, 37.0, 618.0)">1</text><text xml:space="preserve" font-family="Helvetica-Light" font-size="62.5" fill="#000000" transform="matrix(1.00, 0.00, -0.00, -1.00, 71.7, 618.0)">.</text><text xml:space="preserve" font-family="Helvetica-Light" font-size="62.5" fill="#000000" transform="matrix(1.00, 0.00, -0.00, -1.00, 89.1, 618.0)"> </text><text xml:space="preserve" font-family="Helvetica-Light" font-size="62.5" fill="#000000" transform="matrix(1.00, 0.00, -0.00, -1.00, 106.5, 618.0)">A</text><text xml:space="preserve" font-family="Helvetica-Light" font-size="62.5" fill="#000000" transform="matrix(1.00, 0.00, -0.00, -1.00, 148.2, 618.0)">s</text><text xml:space="preserve" font-family="Helvetica-Light" font-size="62.5" fill="#000000" transform="matrix(1.00, 0.00, -0.00, -1.00, 179.4, 618.0)">k</text><text xml:space="preserve" font-family="Helvetica-Light" font-size="62.5" fill="#000000" transform="matrix(1.00, 0.00, -0.00, -1.00, 210.6, 618.0)"> </text><text xml:space="preserve" font-family="Helvetica-Light" font-size="62.5" fill="#000000" transform="matrix(1.00, 0.00, -0.00, -1.00, 228.0, 618.0)">s</text><text xml:space="preserve" font-family="Helvetica-Light" font-size="62.5" fill="#000000" transform="matrix(1.00, 0.00, -0.00, -1.00, 259.2, 618.0)">o</text><text xml:space="preserve" font-family="Helvetica-Light" font-size="62.5" fill="#000000" transform="matrix(1.00, 0.00, -0.00, -1.00, 294.0, 618.0)">m</text><text xml:space="preserve" font-family="Helvetica-Light" font-size="62.5" fill="#000000" transform="matrix(1.00, 0.00, -0.00, -1.00, 346.0, 618.0)">e</text><text xml:space="preserve" font-family="Helvetica-Light" font-size="62.5" fill="#000000" transform="matrix(1.00, 0.00, -0.00, -1.00, 380.8, 618.0)">o</text><text xml:space="preserve" font-family="Helvetica-Light" font-size="62.5" fill="#000000" transform="matrix(1.00, 0.00, -0.00, -1.00, 415.5, 618.0)">n</text><text xml:space="preserve" font-family="Helvetica-Light" font-size="62.5" fill="#000000" transform="matrix(1.00, 0.00, -0.00, -1.00, 450.2, 618.0)">e</text><text xml:space="preserve" font-family="Helvetica-Light" font-size="62.5" fill="#000000" transform="matrix(1.00, 0.00, -0.00, -1.00, 485.0, 618.0)"> </text><text xml:space="preserve" font-family="Helvetica-Light" font-size="62.5" fill="#000000" transform="matrix(1.00, 0.00, -0.00, -1.00, 502.4, 618.0)">w</text><text xml:space="preserve" font-family="Helvetica-Light" font-size="62.5" fill="#000000" transform="matrix(1.00, 0.00, -0.00, -1.00, 547.5, 618.0)">h</text><text xml:space="preserve" font-family="Helvetica-Light" font-size="62.5" fill="#000000" transform="matrix(1.00, 0.00, -0.00, -1.00, 582.2, 618.0)">o</text><text xml:space="preserve" font-family="Helvetica-Light" font-size="62.5" fill="#000000" transform="matrix(1.00, 0.00, -0.00, -1.00, 616.9, 618.0)"> </text><text xml:space="preserve" font-family="Helvetica-Light" font-size="62.5" fill="#000000" transform="matrix(1.00, 0.00, -0.00, -1.00, 634.3, 618.0)">y</text><text xml:space="preserve" font-family="Helvetica-Light" font-size="62.5" fill="#000000" transform="matrix(1.00, 0.00, -0.00, -1.00, 665.5, 618.0)">o</text><text xml:space="preserve" font-family="Helvetica-Light" font-size="62.5" fill="#000000" transform="matrix(1.00, 0.00, -0.00, -1.00, 700.3, 618.0)">u</text><text xml:space="preserve" font-family="Helvetica-Light" font-size="62.5" fill="#000000" transform="matrix(1.00, 0.00, -0.00, -1.00, 735.0, 618.0)"> </text><text xml:space="preserve" font-family="Helvetica-Light" font-size="62.5" fill="#000000" transform="matrix(1.00, 0.00, -0.00, -1.00, 752.4, 618.0)">a</text><text xml:space="preserve" font-family="Helvetica-Light" font-size="62.5" fill="#000000" transform="matrix(1.00, 0.00, -0.00, -1.00, 787.1, 618.0)">r</text><text xml:space="preserve" font-family="Helvetica-Light" font-size="62.5" fill="#000000" transform="matrix(1.00, 0.00, -0.00, -1.00, 806.8, 618.0)">e</text><text xml:space="preserve" font-family="Helvetica-Light" font-size="62.5" fill="#000000" transform="matrix(1.00, 0.00, -0.00, -1.00, 841.6, 618.0)"> </text><text xml:space="preserve" font-family="Helvetica-Light" font-size="62.5" fill="#000000" transform="matrix(1.00, 0.00, -0.00, -1.00, 37.0, 507.0)">2</text><text xml:space="preserve" font-family="Helvetica-Light" font-size="62.5" fill="#000000" transform="matrix(1.00, 0.00, -0.00, -1.00, 71.7, 507.0)">.</text><text xml:space="preserve" font-family="Helvetica-Light" font-size="62.5" fill="#000000" transform="matrix(1.00, 0.00, -0.00, -1.00, 89.1, 507.0)"> </text><text xml:space="preserve" font-family="Helvetica-Light" font-size="62.5" fill="#000000" transform="matrix(1.00, 0.00, -0.00, -1.00, 106.5, 507.0)">I</text><text xml:space="preserve" font-family="Helvetica-Light" font-size="62.5" fill="#000000" transform="matrix(1.00, 0.00, -0.00, -1.00, 123.8, 507.0)">d</text><text xml:space="preserve" font-family="Helvetica-Light" font-size="62.5" fill="#000000" transform="matrix(1.00, 0.00, -0.00, -1.00, 162.0, 507.0)">e</text><text xml:space="preserve" font-family="Helvetica-Light" font-size="62.5" fill="#000000" transform="matrix(1.00, 0.00, -0.00, -1.00, 196.8, 507.0)">n</text><text xml:space="preserve" font-family="Helvetica-Light" font-size="62.5" fill="#000000" transform="matrix(1.00, 0.00, -0.00, -1.00, 231.5, 507.0)">t</text><text xml:space="preserve" font-family="Helvetica-Light" font-size="62.5" fill="#000000" transform="matrix(1.00, 0.00, -0.00, -1.00, 248.9, 507.0)">i</text><text xml:space="preserve" font-family="Helvetica-Light" font-size="62.5" fill="#000000" transform="matrix(1.00, 0.00, -0.00, -1.00, 262.7, 507.0)">f</text><text xml:space="preserve" font-family="Helvetica-Light" font-size="62.5" fill="#000000" transform="matrix(1.00, 0.00, -0.00, -1.00, 280.1, 507.0)">y</text><text xml:space="preserve" font-family="Helvetica-Light" font-size="62.5" fill="#000000" transform="matrix(1.00, 0.00, -0.00, -1.00, 311.3, 507.0)"> </text><text xml:space="preserve" font-family="Helvetica-Light" font-size="62.5" fill="#000000" transform="matrix(1.00, 0.00, -0.00, -1.00, 328.7, 507.0)">y</text><text xml:space="preserve" font-family="Helvetica-Light" font-size="62.5" fill="#000000" transform="matrix(1.00, 0.00, -0.00, -1.00, 360.0, 507.0)">o</text><text xml:space="preserve" font-family="Helvetica-Light" font-size="62.5" fill="#000000" transform="matrix(1.00, 0.00, -0.00, -1.00, 394.7, 507.0)">u</text><text xml:space="preserve" font-family="Helvetica-Light" font-size="62.5" fill="#000000" transform="matrix(1.00, 0.00, -0.00, -1.00, 429.4, 507.0)">r</text><text xml:space="preserve" font-family="Helvetica-Light" font-size="62.5" fill="#000000" transform="matrix(1.00, 0.00, -0.00, -1.00, 450.2, 507.0)"> </text><text xml:space="preserve" font-family="Helvetica-Light" font-size="62.5" fill="#000000" transform="matrix(1.00, 0.00, -0.00, -1.00, 467.6, 507.0)">w</text><text xml:space="preserve" font-family="Helvetica-Light" font-size="62.5" fill="#000000" transform="matrix(1.00, 0.00, -0.00, -1.00, 512.7, 507.0)">i</text><text xml:space="preserve" font-family="Helvetica-Light" font-size="62.5" fill="#000000" transform="matrix(1.00, 0.00, -0.00, -1.00, 526.6, 507.0)">n</text><text xml:space="preserve" font-family="Helvetica-Light" font-size="62.5" fill="#000000" transform="matrix(1.00, 0.00, -0.00, -1.00, 561.3, 507.0)">s</text><text xml:space="preserve" font-family="Helvetica-Light" font-size="62.5" fill="#000000" transform="matrix(1.00, 0.00, -0.00, -1.00, 592.6, 507.0)"> </text><text xml:space="preserve" font-family="Helvetica-Light" font-size="62.5" fill="#000000" transform="matrix(1.00, 0.00, -0.00, -1.00, 609.9, 507.0)">&amp;</text><text xml:space="preserve" font-family="Helvetica-Light" font-size="62.5" fill="#000000" transform="matrix(1.00, 0.00, -0.00, -1.00, 651.6, 507.0)"> </text><text xml:space="preserve" font-family="Helvetica-Light" font-size="62.5" fill="#000000" transform="matrix(1.00, 0.00, -0.00, -1.00, 669.0, 507.0)">l</text><text xml:space="preserve" font-family="Helvetica-Light" font-size="62.5" fill="#000000" transform="matrix(1.00, 0.00, -0.00, -1.00, 682.9, 507.0)">o</text><text xml:space="preserve" font-family="Helvetica-Light" font-size="62.5" fill="#000000" transform="matrix(1.00, 0.00, -0.00, -1.00, 717.6, 507.0)">s</text><text xml:space="preserve" font-family="Helvetica-Light" font-size="62.5" fill="#000000" transform="matrix(1.00, 0.00, -0.00, -1.00, 748.8, 507.0)">e</text><text xml:space="preserve" font-family="Helvetica-Light" font-size="62.5" fill="#000000" transform="matrix(1.00, 0.00, -0.00, -1.00, 783.6, 507.0)">s</text><text xml:space="preserve" font-family="Helvetica-Light" font-size="62.5" fill="#000000" transform="matrix(1.00, 0.00, -0.00, -1.00, 814.8, 507.0)"> </text><text xml:space="preserve" font-family="Helvetica-Light" font-size="62.5" fill="#000000" transform="matrix(1.00, 0.00, -0.00, -1.00, 37.0, 396.0)">3</text><text xml:space="preserve" font-family="Helvetica-Light" font-size="62.5" fill="#000000" transform="matrix(1.00, 0.00, -0.00, -1.00, 71.7, 396.0)">.</text><text xml:space="preserve" font-family="Helvetica-Light" font-size="62.5" fill="#000000" transform="matrix(1.00, 0.00, -0.00, -1.00, 89.1, 396.0)"> </text><text xml:space="preserve" font-family="Helvetica-Light" font-size="62.5" fill="#000000" transform="matrix(1.00, 0.00, -0.00, -1.00, 106.5, 396.0)">H</text><text xml:space="preserve" font-family="Helvetica-Light" font-size="62.5" fill="#000000" transform="matrix(1.00, 0.00, -0.00, -1.00, 151.6, 396.0)">a</text><text xml:space="preserve" font-family="Helvetica-Light" font-size="62.5" fill="#000000" transform="matrix(1.00, 0.00, -0.00, -1.00, 186.3, 396.0)">v</text><text xml:space="preserve" font-family="Helvetica-Light" font-size="62.5" fill="#000000" transform="matrix(1.00, 0.00, -0.00, -1.00, 217.6, 396.0)">e</text><text xml:space="preserve" font-family="Helvetica-Light" font-size="62.5" fill="#000000" transform="matrix(1.00, 0.00, -0.00, -1.00, 252.3, 396.0)"> </text><text xml:space="preserve" font-family="Helvetica-Light" font-size="62.5" fill="#000000" transform="matrix(1.00, 0.00, -0.00, -1.00, 269.7, 396.0)">a</text><text xml:space="preserve" font-family="Helvetica-Light" font-size="62.5" fill="#000000" transform="matrix(1.00, 0.00, -0.00, -1.00, 304.4, 396.0)"> </text><text xml:space="preserve" font-family="Helvetica-Light" font-size="62.5" fill="#000000" transform="matrix(1.00, 0.00, -0.00, -1.00, 321.8, 396.0)">m</text><text xml:space="preserve" font-family="Helvetica-Light" font-size="62.5" fill="#000000" transform="matrix(1.00, 0.00, -0.00, -1.00, 373.8, 396.0)">i</text><text xml:space="preserve" font-family="Helvetica-Light" font-size="62.5" fill="#000000" transform="matrix(1.00, 0.00, -0.00, -1.00, 387.7, 396.0)">s</text><text xml:space="preserve" font-family="Helvetica-Light" font-size="62.5" fill="#000000" transform="matrix(1.00, 0.00, -0.00, -1.00, 418.9, 396.0)">s</text><text xml:space="preserve" font-family="Helvetica-Light" font-size="62.5" fill="#000000" transform="matrix(1.00, 0.00, -0.00, -1.00, 450.2, 396.0)">i</text><text xml:space="preserve" font-family="Helvetica-Light" font-size="62.5" fill="#000000" transform="matrix(1.00, 0.00, -0.00, -1.00, 464.1, 396.0)">o</text><text xml:space="preserve" font-family="Helvetica-Light" font-size="62.5" fill="#000000" transform="matrix(1.00, 0.00, -0.00, -1.00, 498.8, 396.0)">n</text><text xml:space="preserve" font-family="Helvetica-Light" font-size="62.5" fill="#000000" transform="matrix(1.00, 0.00, -0.00, -1.00, 533.5, 396.0)"> </text><text xml:space="preserve" font-family="Helvetica-Light" font-size="62.5" fill="#000000" transform="matrix(1.00, 0.00, -0.00, -1.00, 550.9, 396.0)">f</text><text xml:space="preserve" font-family="Helvetica-Light" font-size="62.5" fill="#000000" transform="matrix(1.00, 0.00, -0.00, -1.00, 568.3, 396.0)">o</text><text xml:space="preserve" font-family="Helvetica-Light" font-size="62.5" fill="#000000" transform="matrix(1.00, 0.00, -0.00, -1.00, 603.0, 396.0)">r</text><text xml:space="preserve" font-family="Helvetica-Light" font-size="62.5" fill="#000000" transform="matrix(1.00, 0.00, -0.00, -1.00, 623.8, 396.0)"> </text><text xml:space="preserve" font-family="Helvetica-Light" font-size="62.5" fill="#000000" transform="matrix(1.00, 0.00, -0.00, -1.00, 641.2, 396.0)">y</text><text xml:space="preserve" font-family="Helvetica-Light" font-size="62.5" fill="#000000" transform="matrix(1.00, 0.00, -0.00, -1.00, 672.4, 396.0)">o</text><text xml:space="preserve" font-family="Helvetica-Light" font-size="62.5" fill="#000000" transform="matrix(1.00, 0.00, -0.00, -1.00, 707.2, 396.0)">u</text><text xml:space="preserve" font-family="Helvetica-Light" font-size="62.5" fill="#000000" transform="matrix(1.00, 0.00, -0.00, -1.00, 741.9, 396.0)">r</text><text xml:space="preserve" font-family="Helvetica-Light" font-size="62.5" fill="#000000" transform="matrix(1.00, 0.00, -0.00, -1.00, 762.7, 396.0)">s</text><text xml:space="preserve" font-family="Helvetica-Light" font-size="62.5" fill="#000000" transform="matrix(1.00, 0.00, -0.00, -1.00, 793.9, 396.0)">e</text><text xml:space="preserve" font-family="Helvetica-Light" font-size="62.5" fill="#000000" transform="matrix(1.00, 0.00, -0.00, -1.00, 828.7, 396.0)">l</text><text xml:space="preserve" font-family="Helvetica-Light" font-size="62.5" fill="#000000" transform="matrix(1.00, 0.00, -0.00, -1.00, 842.6, 396.0)">f</text><text xml:space="preserve" font-family="Helvetica-Light" font-size="62.5" fill="#000000" transform="matrix(1.00, 0.00, -0.00, -1.00, 859.9, 396.0)"> </text><text xml:space="preserve" font-family="Helvetica-Light" font-size="62.5" fill="#000000" transform="matrix(1.00, 0.00, -0.00, -1.00, 37.0, 285.0)">4</text><text xml:space="preserve" font-family="Helvetica-Light" font-size="62.5" fill="#000000" transform="matrix(1.00, 0.00, -0.00, -1.00, 71.7, 285.0)">.</text><text xml:space="preserve" font-family="Helvetica-Light" font-size="62.5" fill="#000000" transform="matrix(1.00, 0.00, -0.00, -1.00, 89.1, 285.0)"> </text><text xml:space="preserve" font-family="Helvetica-Light" font-size="62.5" fill="#000000" transform="matrix(1.00, 0.00, -0.00, -1.00, 106.5, 285.0)">S</text><text xml:space="preserve" font-family="Helvetica-Light" font-size="62.5" fill="#000000" transform="matrix(1.00, 0.00, -0.00, -1.00, 144.7, 285.0)">t</text><text xml:space="preserve" font-family="Helvetica-Light" font-size="62.5" fill="#000000" transform="matrix(1.00, 0.00, -0.00, -1.00, 162.0, 285.0)">a</text><text xml:space="preserve" font-family="Helvetica-Light" font-size="62.5" fill="#000000" transform="matrix(1.00, 0.00, -0.00, -1.00, 196.8, 285.0)">r</text><text xml:space="preserve" font-family="Helvetica-Light" font-size="62.5" fill="#000000" transform="matrix(1.00, 0.00, -0.00, -1.00, 218.7, 285.0)">t</text><text xml:space="preserve" font-family="Helvetica-Light" font-size="62.5" fill="#000000" transform="matrix(1.00, 0.00, -0.00, -1.00, 236.1, 285.0)"> </text><text xml:space="preserve" font-family="Helvetica-Light" font-size="62.5" fill="#000000" transform="matrix(1.00, 0.00, -0.00, -1.00, 253.4, 285.0)">b</text><text xml:space="preserve" font-family="Helvetica-Light" font-size="62.5" fill="#000000" transform="matrix(1.00, 0.00, -0.00, -1.00, 291.6, 285.0)">l</text><text xml:space="preserve" font-family="Helvetica-Light" font-size="62.5" fill="#000000" transform="matrix(1.00, 0.00, -0.00, -1.00, 305.5, 285.0)">o</text><text xml:space="preserve" font-family="Helvetica-Light" font-size="62.5" fill="#000000" transform="matrix(1.00, 0.00, -0.00, -1.00, 340.2, 285.0)">g</text><text xml:space="preserve" font-family="Helvetica-Light" font-size="62.5" fill="#000000" transform="matrix(1.00, 0.00, -0.00, -1.00, 378.4, 285.0)">g</text><text xml:space="preserve" font-family="Helvetica-Light" font-size="62.5" fill="#000000" transform="matrix(1.00, 0.00, -0.00, -1.00, 416.6, 285.0)">i</text><text xml:space="preserve" font-family="Helvetica-Light" font-size="62.5" fill="#000000" transform="matrix(1.00, 0.00, -0.00, -1.00, 430.4, 285.0)">n</text><text xml:space="preserve" font-family="Helvetica-Light" font-size="62.5" fill="#000000" transform="matrix(1.00, 0.00, -0.00, -1.00, 465.2, 285.0)">g</text><text xml:space="preserve" font-family="Helvetica-Light" font-size="62.5" fill="#000000" transform="matrix(1.00, 0.00, -0.00, -1.00, 503.4, 285.0)"> </text><text xml:space="preserve" font-family="Helvetica-Light" font-size="62.5" fill="#000000" transform="matrix(1.00, 0.00, -0.00, -1.00, 520.7, 285.0)">+</text><text xml:space="preserve" font-family="Helvetica-Light" font-size="62.5" fill="#000000" transform="matrix(1.00, 0.00, -0.00, -1.00, 562.0, 285.0)"> </text><text xml:space="preserve" font-family="Helvetica-Light" font-size="62.5" fill="#000000" transform="matrix(1.00, 0.00, -0.00, -1.00, 579.3, 285.0)">t</text><text xml:space="preserve" font-family="Helvetica-Light" font-size="62.5" fill="#000000" transform="matrix(1.00, 0.00, -0.00, -1.00, 596.7, 285.0)">a</text><text xml:space="preserve" font-family="Helvetica-Light" font-size="62.5" fill="#000000" transform="matrix(1.00, 0.00, -0.00, -1.00, 631.4, 285.0)">l</text><text xml:space="preserve" font-family="Helvetica-Light" font-size="62.5" fill="#000000" transform="matrix(1.00, 0.00, -0.00, -1.00, 645.3, 285.0)">k</text><text xml:space="preserve" font-family="Helvetica-Light" font-size="62.5" fill="#000000" transform="matrix(1.00, 0.00, -0.00, -1.00, 676.5, 285.0)"> </text><text xml:space="preserve" font-family="Helvetica-Light" font-size="62.5" fill="#000000" transform="matrix(1.00, 0.00, -0.00, -1.00, 37.0, 174.0)">5</text><text xml:space="preserve" font-family="Helvetica-Light" font-size="62.5" fill="#000000" transform="matrix(1.00, 0.00, -0.00, -1.00, 71.7, 174.0)">.</text><text xml:space="preserve" font-family="Helvetica-Light" font-size="62.5" fill="#000000" transform="matrix(1.00, 0.00, -0.00, -1.00, 89.1, 174.0)"> </text><text xml:space="preserve" font-family="Helvetica-Light" font-size="62.5" fill="#000000" transform="matrix(1.00, 0.00, -0.00, -1.00, 106.5, 174.0)">C</text><text xml:space="preserve" font-family="Helvetica-Light" font-size="62.5" fill="#000000" transform="matrix(1.00, 0.00, -0.00, -1.00, 151.6, 174.0)">h</text><text xml:space="preserve" font-family="Helvetica-Light" font-size="62.5" fill="#000000" transform="matrix(1.00, 0.00, -0.00, -1.00, 186.3, 174.0)">e</text><text xml:space="preserve" font-family="Helvetica-Light" font-size="62.5" fill="#000000" transform="matrix(1.00, 0.00, -0.00, -1.00, 221.1, 174.0)">c</text><text xml:space="preserve" font-family="Helvetica-Light" font-size="62.5" fill="#000000" transform="matrix(1.00, 0.00, -0.00, -1.00, 255.8, 174.0)">k</text><text xml:space="preserve" font-family="Helvetica-Light" font-size="62.5" fill="#000000" transform="matrix(1.00, 0.00, -0.00, -1.00, 287.0, 174.0)"> </text><text xml:space="preserve" font-family="Helvetica-Light" font-size="62.5" fill="#000000" transform="matrix(1.00, 0.00, -0.00, -1.00, 304.4, 174.0)">y</text><text xml:space="preserve" font-family="Helvetica-Light" font-size="62.5" fill="#000000" transform="matrix(1.00, 0.00, -0.00, -1.00, 335.7, 174.0)">o</text><text xml:space="preserve" font-family="Helvetica-Light" font-size="62.5" fill="#000000" transform="matrix(1.00, 0.00, -0.00, -1.00, 370.4, 174.0)">u</text><text xml:space="preserve" font-family="Helvetica-Light" font-size="62.5" fill="#000000" transform="matrix(1.00, 0.00, -0.00, -1.00, 405.1, 174.0)">r</text><text xml:space="preserve" font-family="Helvetica-Light" font-size="62.5" fill="#000000" transform="matrix(1.00, 0.00, -0.00, -1.00, 425.9, 174.0)"> </text><text xml:space="preserve" font-family="Helvetica-Light" font-size="62.5" fill="#000000" transform="matrix(1.00, 0.00, -0.00, -1.00, 443.3, 174.0)">e</text><text xml:space="preserve" font-family="Helvetica-Light" font-size="62.5" fill="#000000" transform="matrix(1.00, 0.00, -0.00, -1.00, 478.0, 174.0)">g</text><text xml:space="preserve" font-family="Helvetica-Light" font-size="62.5" fill="#000000" transform="matrix(1.00, 0.00, -0.00, -1.00, 516.2, 174.0)">o</text><text xml:space="preserve" font-family="Helvetica-Light" font-size="62.5" fill="#000000" transform="matrix(1.00, 0.00, -0.00, -1.00, 551.0, 174.0)"> </text><text xml:space="preserve" font-family="Helvetica-Light" font-size="62.5" fill="#000000" transform="matrix(1.00, 0.00, -0.00, -1.00, 568.3, 174.0)">a</text><text xml:space="preserve" font-family="Helvetica-Light" font-size="62.5" fill="#000000" transform="matrix(1.00, 0.00, -0.00, -1.00, 603.1, 174.0)">t</text><text xml:space="preserve" font-family="Helvetica-Light" font-size="62.5" fill="#000000" transform="matrix(1.00, 0.00, -0.00, -1.00, 620.4, 174.0)"> </text><text xml:space="preserve" font-family="Helvetica-Light" font-size="62.5" fill="#000000" transform="matrix(1.00, 0.00, -0.00, -1.00, 637.8, 174.0)">t</text><text xml:space="preserve" font-family="Helvetica-Light" font-size="62.5" fill="#000000" transform="matrix(1.00, 0.00, -0.00, -1.00, 655.2, 174.0)">h</text><text xml:space="preserve" font-family="Helvetica-Light" font-size="62.5" fill="#000000" transform="matrix(1.00, 0.00, -0.00, -1.00, 689.9, 174.0)">e</text><text xml:space="preserve" font-family="Helvetica-Light" font-size="62.5" fill="#000000" transform="matrix(1.00, 0.00, -0.00, -1.00, 724.7, 174.0)"> </text><text xml:space="preserve" font-family="Helvetica-Light" font-size="62.5" fill="#000000" transform="matrix(1.00, 0.00, -0.00, -1.00, 742.0, 174.0)">d</text><text xml:space="preserve" font-family="Helvetica-Light" font-size="62.5" fill="#000000" transform="matrix(1.00, 0.00, -0.00, -1.00, 780.2, 174.0)">o</text><text xml:space="preserve" font-family="Helvetica-Light" font-size="62.5" fill="#000000" transform="matrix(1.00, 0.00, -0.00, -1.00, 814.9, 174.0)">o</text><text xml:space="preserve" font-family="Helvetica-Light" font-size="62.5" fill="#000000" transform="matrix(1.00, 0.00, -0.00, -1.00, 849.7, 174.0)">r</text></g></svg>