<?xml version="1.0" encoding="UTF-8" standalone="no"?><svg xmlns="http://www.w3.org/2000/svg" xmlns:xlink="http://www.w3.org/1999/xlink" clip-rule="evenodd" stroke-miterlimit="4.00" viewBox="0 0 1024 768"><desc>SVG generated by Keynote</desc><defs></defs><g transform="matrix(1.00, 0.00, -0.00, -1.00, 0.0, 768.0)"><path d="M 0.0 768.0 L 1024.0 768.0 L 1024.0 0.0 L 0.0 0.0 Z M 0.0 768.0 " fill="#FEFFFF"></path><text xml:space="preserve" font-family="Helvetica-LightOblique" font-style="italic" font-size="80.0" fill="#000000" transform="matrix(1.00, 0.00, -0.00, -1.00, 230.0, 533.0)">T</text><text xml:space="preserve" font-family="Helvetica-LightOblique" font-style="italic" font-size="80.0" fill="#000000" transform="matrix(1.00, 0.00, -0.00, -1.00, 274.5, 533.0)">h</text><text xml:space="preserve" font-family="Helvetica-LightOblique" font-style="italic" font-size="80.0" fill="#000000" transform="matrix(1.00, 0.00, -0.00, -1.00, 319.0, 533.0)">e</text><text xml:space="preserve" font-family="Helvetica-LightOblique" font-style="italic" font-size="80.0" fill="#000000" transform="matrix(1.00, 0.00, -0.00, -1.00, 363.4, 533.0)"> </text><text xml:space="preserve" font-family="Helvetica-LightOblique" font-style="italic" font-size="80.0" fill="#000000" transform="matrix(1.00, 0.00, -0.00, -1.00, 385.7, 533.0)">b</text><text xml:space="preserve" font-family="Helvetica-LightOblique" font-style="italic" font-size="80.0" fill="#000000" transform="matrix(1.00, 0.00, -0.00, -1.00, 434.6, 533.0)">e</text><text xml:space="preserve" font-family="Helvetica-LightOblique" font-style="italic" font-size="80.0" fill="#000000" transform="matrix(1.00, 0.00, -0.00, -1.00, 479.0, 533.0)">s</text><text xml:space="preserve" font-family="Helvetica-LightOblique" font-style="italic" font-size="80.0" fill="#000000" transform="matrix(1.00, 0.00, -0.00, -1.00, 519.0, 533.0)">t</text><text xml:space="preserve" font-family="Helvetica-LightOblique" font-style="italic" font-size="80.0" fill="#000000" transform="matrix(1.00, 0.00, -0.00, -1.00, 541.3, 533.0)"> </text><text xml:space="preserve" font-family="Helvetica-LightOblique" font-style="italic" font-size="80.0" fill="#000000" transform="matrix(1.00, 0.00, -0.00, -1.00, 563.5, 533.0)">w</text><text xml:space="preserve" font-family="Helvetica-LightOblique" font-style="italic" font-size="80.0" fill="#000000" transform="matrix(1.00, 0.00, -0.00, -1.00, 621.3, 533.0)">a</text><text xml:space="preserve" font-family="Helvetica-LightOblique" font-style="italic" font-size="80.0" fill="#000000" transform="matrix(1.00, 0.00, -0.00, -1.00, 665.8, 533.0)">y</text><text xml:space="preserve" font-family="Helvetica-LightOblique" font-style="italic" font-size="80.0" fill="#000000" transform="matrix(1.00, 0.00, -0.00, -1.00, 705.8, 533.0)"> </text><text xml:space="preserve" font-family="Helvetica-LightOblique" font-style="italic" font-size="80.0" fill="#000000" transform="matrix(1.00, 0.00, -0.00, -1.00, 728.0, 533.0)">t</text><text xml:space="preserve" font-family="Helvetica-LightOblique" font-style="italic" font-size="80.0" fill="#000000" transform="matrix(1.00, 0.00, -0.00, -1.00, 750.2, 533.0)">o</text><text xml:space="preserve" font-family="Helvetica-LightOblique" font-style="italic" font-size="80.0" fill="#000000" transform="matrix(1.00, 0.00, -0.00, -1.00, 794.7, 533.0)"> </text><text xml:space="preserve" font-family="Helvetica-LightOblique" font-style="italic" font-size="80.0" fill="#000000" transform="matrix(1.00, 0.00, -0.00, -1.00, 216.0, 437.0)">l</text><text xml:space="preserve" font-family="Helvetica-LightOblique" font-style="italic" font-size="80.0" fill="#000000" transform="matrix(1.00, 0.00, -0.00, -1.00, 233.8, 437.0)">e</text><text xml:space="preserve" font-family="Helvetica-LightOblique" font-style="italic" font-size="80.0" fill="#000000" transform="matrix(1.00, 0.00, -0.00, -1.00, 278.2, 437.0)">a</text><text xml:space="preserve" font-family="Helvetica-LightOblique" font-style="italic" font-size="80.0" fill="#000000" transform="matrix(1.00, 0.00, -0.00, -1.00, 322.7, 437.0)">r</text><text xml:space="preserve" font-family="Helvetica-LightOblique" font-style="italic" font-size="80.0" fill="#000000" transform="matrix(1.00, 0.00, -0.00, -1.00, 350.8, 437.0)">n</text><text xml:space="preserve" font-family="Helvetica-LightOblique" font-style="italic" font-size="80.0" fill="#000000" transform="matrix(1.00, 0.00, -0.00, -1.00, 395.3, 437.0)"> </text><text xml:space="preserve" font-family="Helvetica-LightOblique" font-style="italic" font-size="80.0" fill="#000000" transform="matrix(1.00, 0.00, -0.00, -1.00, 417.5, 437.0)">i</text><text xml:space="preserve" font-family="Helvetica-LightOblique" font-style="italic" font-size="80.0" fill="#000000" transform="matrix(1.00, 0.00, -0.00, -1.00, 435.3, 437.0)">s</text><text xml:space="preserve" font-family="Helvetica-LightOblique" font-style="italic" font-size="80.0" fill="#000000" transform="matrix(1.00, 0.00, -0.00, -1.00, 475.3, 437.0)"> </text><text xml:space="preserve" font-family="Helvetica-LightOblique" font-style="italic" font-size="80.0" fill="#000000" transform="matrix(1.00, 0.00, -0.00, -1.00, 497.5, 437.0)">t</text><text xml:space="preserve" font-family="Helvetica-LightOblique" font-style="italic" font-size="80.0" fill="#000000" transform="matrix(1.00, 0.00, -0.00, -1.00, 519.8, 437.0)">o</text><text xml:space="preserve" font-family="Helvetica-LightOblique" font-style="italic" font-size="80.0" fill="#000000" transform="matrix(1.00, 0.00, -0.00, -1.00, 564.2, 437.0)"> </text><text xml:space="preserve" font-family="Helvetica-LightOblique" font-style="italic" font-size="80.0" fill="#000000" transform="matrix(1.00, 0.00, -0.00, -1.00, 586.5, 437.0)">t</text><text xml:space="preserve" font-family="Helvetica-LightOblique" font-style="italic" font-size="80.0" fill="#000000" transform="matrix(1.00, 0.00, -0.00, -1.00, 608.7, 437.0)">e</text><text xml:space="preserve" font-family="Helvetica-LightOblique" font-style="italic" font-size="80.0" fill="#000000" transform="matrix(1.00, 0.00, -0.00, -1.00, 653.2, 437.0)">a</text><text xml:space="preserve" font-family="Helvetica-LightOblique" font-style="italic" font-size="80.0" fill="#000000" transform="matrix(1.00, 0.00, -0.00, -1.00, 697.7, 437.0)">c</text><text xml:space="preserve" font-family="Helvetica-LightOblique" font-style="italic" font-size="80.0" fill="#000000" transform="matrix(1.00, 0.00, -0.00, -1.00, 742.2, 437.0)">h</text><text xml:space="preserve" font-family="Helvetica-LightOblique" font-style="italic" font-size="80.0" fill="#000000" transform="matrix(1.00, 0.00, -0.00, -1.00, 786.6, 437.0)">.</text><text xml:space="preserve" font-family="Helvetica-LightOblique" font-style="italic" font-size="80.0" fill="#000000" transform="matrix(1.00, 0.00, -0.00, -1.00, 808.9, 437.0)"> </text><text xml:space="preserve" font-family="Helvetica-LightOblique" font-style="italic" font-size="80.0" fill="#000000" transform="matrix(1.00, 0.00, -0.00, -1.00, 831.1, 437.0)"> </text><text xml:space="preserve" font-family="Helvetica-LightOblique" font-style="italic" font-size="80.0" fill="#000000" transform="matrix(1.00, 0.00, -0.00, -1.00, 461.0, 341.4)">-</text><text xml:space="preserve" font-family="Helvetica-LightOblique" font-style="italic" font-size="80.0" fill="#000000" transform="matrix(1.00, 0.00, -0.00, -1.00, 487.6, 341.4)"> </text><text xml:space="preserve" font-family="Helvetica-LightOblique" font-style="italic" font-size="80.0" fill="#000000" transform="matrix(1.00, 0.00, -0.00, -1.00, 509.9, 341.4)">{</text><text xml:space="preserve" font-family="Helvetica-LightOblique" font-style="italic" font-size="80.0" fill="#000000" transform="matrix(1.00, 0.00, -0.00, -1.00, 536.5, 341.4)">s</text><text xml:space="preserve" font-family="Helvetica-LightOblique" font-style="italic" font-size="80.0" fill="#000000" transform="matrix(1.00, 0.00, -0.00, -1.00, 576.5, 341.4)">o</text><text xml:space="preserve" font-family="Helvetica-LightOblique" font-style="italic" font-size="80.0" fill="#000000" transform="matrix(1.00, 0.00, -0.00, -1.00, 621.0, 341.4)">m</text><text xml:space="preserve" font-family="Helvetica-LightOblique" font-style="italic" font-size="80.0" fill="#000000" transform="matrix(1.00, 0.00, -0.00, -1.00, 687.6, 341.4)">e</text><text xml:space="preserve" font-family="Helvetica-LightOblique" font-style="italic" font-size="80.0" fill="#000000" transform="matrix(1.00, 0.00, -0.00, -1.00, 732.1, 341.4)">o</text><text xml:space="preserve" font-family="Helvetica-LightOblique" font-style="italic" font-size="80.0" fill="#000000" transform="matrix(1.00, 0.00, -0.00, -1.00, 776.6, 341.4)">n</text><text xml:space="preserve" font-family="Helvetica-LightOblique" font-style="italic" font-size="80.0" fill="#000000" transform="matrix(1.00, 0.00, -0.00, -1.00, 821.1, 341.4)">e</text><text xml:space="preserve" font-family="Helvetica-LightOblique" font-style="italic" font-size="80.0" fill="#000000" transform="matrix(1.00, 0.00, -0.00, -1.00, 865.6, 341.4)">}</text><text xml:space="preserve" font-family="Helvetica-LightOblique" font-style="italic" font-size="80.0" fill="#000000" transform="matrix(1.00, 0.00, -0.00, -1.00, 892.2, 341.4)"> </text><text xml:space="preserve" font-family="Helvetica-Bold" font-weight="bold" font-size="47.0" fill="#000000" transform="matrix(1.00, 0.00, -0.00, -1.00, 638.9, 192.8)">…</text><text xml:space="preserve" font-family="Helvetica-Bold" font-weight="bold" font-size="47.0" fill="#000000" transform="matrix(1.00, 0.00, -0.00, -1.00, 685.9, 192.8)">s</text><text xml:space="preserve" font-family="Helvetica-Bold" font-weight="bold" font-size="47.0" fill="#000000" transform="matrix(1.00, 0.00, -0.00, -1.00, 712.0, 192.8)">o</text><text xml:space="preserve" font-family="Helvetica-Bold" font-weight="bold" font-size="47.0" fill="#000000" transform="matrix(1.00, 0.00, -0.00, -1.00, 740.7, 192.8)"> </text><text xml:space="preserve" font-family="Helvetica-Bold" font-weight="bold" font-size="47.0" fill="#000000" transform="matrix(1.00, 0.00, -0.00, -1.00, 753.8, 192.8)">t</text><text xml:space="preserve" font-family="Helvetica-Bold" font-weight="bold" font-size="47.0" fill="#000000" transform="matrix(1.00, 0.00, -0.00, -1.00, 769.4, 192.8)">e</text><text xml:space="preserve" font-family="Helvetica-Bold" font-weight="bold" font-size="47.0" fill="#000000" transform="matrix(1.00, 0.00, -0.00, -1.00, 795.6, 192.8)">a</text><text xml:space="preserve" font-family="Helvetica-Bold" font-weight="bold" font-size="47.0" fill="#000000" transform="matrix(1.00, 0.00, -0.00, -1.00, 821.7, 192.8)">c</text><text xml:space="preserve" font-family="Helvetica-Bold" font-weight="bold" font-size="47.0" fill="#000000" transform="matrix(1.00, 0.00, -0.00, -1.00, 847.9, 192.8)">h</text><text xml:space="preserve" font-family="Helvetica-Bold" font-weight="bold" font-size="47.0" fill="#000000" transform="matrix(1.00, 0.00, -0.00, -1.00, 876.6, 192.8)">!</text><text xml:space="preserve" font-family="Helvetica-Light" font-size="31.0" fill="#000000" transform="matrix(1.00, 0.00, -0.00, -1.00, 788.6, 40.6)">@</text><text xml:space="preserve" font-family="Helvetica-Light" font-size="31.0" fill="#000000" transform="matrix(1.00, 0.00, -0.00, -1.00, 813.4, 40.6)">p</text><text xml:space="preserve" font-family="Helvetica-Light" font-size="31.0" fill="#000000" transform="matrix(1.00, 0.00, -0.00, -1.00, 832.3, 40.6)">e</text><text xml:space="preserve" font-family="Helvetica-Light" font-size="31.0" fill="#000000" transform="matrix(1.00, 0.00, -0.00, -1.00, 849.6, 40.6)">t</text><text xml:space="preserve" font-family="Helvetica-Light" font-size="31.0" fill="#000000" transform="matrix(1.00, 0.00, -0.00, -1.00, 858.2, 40.6)">e</text><text xml:space="preserve" font-family="Helvetica-Light" font-size="31.0" fill="#000000" transform="matrix(1.00, 0.00, -0.00, -1.00, 875.4, 40.6)">r</text><text xml:space="preserve" font-family="Helvetica-Light" font-size="31.0" fill="#000000" transform="matrix(1.00, 0.00, -0.00, -1.00, 885.7, 40.6)">r</text><text xml:space="preserve" font-family="Helvetica-Light" font-size="31.0" fill="#000000" transform="matrix(1.00, 0.00, -0.00, -1.00, 896.1, 40.6)">a</text><text xml:space="preserve" font-family="Helvetica-Light" font-size="31.0" fill="#000000" transform="matrix(1.00, 0.00, -0.00, -1.00, 913.3, 40.6)">m</text><text xml:space="preserve" font-family="Helvetica-Light" font-size="31.0" fill="#000000" transform="matrix(1.00, 0.00, -0.00, -1.00, 939.1, 40.6)">s</text><text xml:space="preserve" font-family="Helvetica-Light" font-size="31.0" fill="#000000" transform="matrix(1.00, 0.00, -0.00, -1.00, 954.6, 40.6)">i</text><text xml:space="preserve" font-family="Helvetica-Light" font-size="31.0" fill="#000000" transform="matrix(1.00, 0.00, -0.00, -1.00, 961.5, 40.6)">n</text><text xml:space="preserve" font-family="Helvetica-Light" font-size="31.0" fill="#000000" transform="matrix(1.00, 0.00, -0.00, -1.00, 978.7, 40.6)">g</text><g><clipPath id="clip-22"><path d="M 37.0 68.0 L 76.0 68.0 L 76.0 36.0 L 37.0 36.0 Z M 37.1 68.2 "></path></clipPath><g clip-path="url(#clip-22)"><g><clipPath id="clip-23"><path d="M 48.4 38.3 C 39.5 43.1 34.0 58.1 38.9 64.1 C 42.0 68.0 44.4 67.9 49.8 63.6 L 54.8 59.6 L 58.2 63.1 C 65.0 70.1 73.0 69.9 75.2 62.6 C 76.7 57.7 74.8 52.0 69.8 45.6 C 62.8 36.8 55.7 34.4 48.4 38.3 "></path></clipPath><g clip-path="url(#clip-23)"><image xlink:href="../../615F7CD4-E262-41F7-8138-806EC6AB1FAB/assets/F4423B8FC98C6914CF27899FD0B081AF.jpeg" width="125.00" height="125.00" transform="matrix(0.36, 0.00, -0.00, -0.36, 34.0, 74.0)"></image></g></g></g></g></g></svg>