<?xml version="1.0" encoding="UTF-8" standalone="no"?><svg xmlns="http://www.w3.org/2000/svg" xmlns:xlink="http://www.w3.org/1999/xlink" clip-rule="evenodd" stroke-miterlimit="4.00" viewBox="0 0 1024 768"><desc>SVG generated by Keynote</desc><defs></defs><g transform="matrix(1.00, 0.00, -0.00, -1.00, 0.0, 768.0)"><path d="M 0.0 768.0 L 1024.0 768.0 L 1024.0 0.0 L 0.0 0.0 Z M 0.0 768.0 " fill="#FEFFFF"></path><text xml:space="preserve" font-family="Helvetica-Light" font-size="71.0" fill="#000000" transform="matrix(1.00, 0.00, -0.00, -1.00, 19.0, 475.0)">T</text><text xml:space="preserve" font-family="Helvetica-Light" font-size="71.0" fill="#000000" transform="matrix(1.00, 0.00, -0.00, -1.00, 58.5, 475.0)">h</text><text xml:space="preserve" font-family="Helvetica-Light" font-size="71.0" fill="#000000" transform="matrix(1.00, 0.00, -0.00, -1.00, 98.0, 475.0)">e</text><text xml:space="preserve" font-family="Helvetica-Light" font-size="71.0" fill="#000000" transform="matrix(1.00, 0.00, -0.00, -1.00, 137.4, 475.0)"> </text><text xml:space="preserve" font-family="Helvetica-Light" font-size="71.0" fill="#000000" transform="matrix(1.00, 0.00, -0.00, -1.00, 157.2, 475.0)">g</text><text xml:space="preserve" font-family="Helvetica-Light" font-size="71.0" fill="#000000" transform="matrix(1.00, 0.00, -0.00, -1.00, 200.5, 475.0)">r</text><text xml:space="preserve" font-family="Helvetica-Light" font-size="71.0" fill="#000000" transform="matrix(1.00, 0.00, -0.00, -1.00, 222.9, 475.0)">e</text><text xml:space="preserve" font-family="Helvetica-Light" font-size="71.0" fill="#000000" transform="matrix(1.00, 0.00, -0.00, -1.00, 262.4, 475.0)">a</text><text xml:space="preserve" font-family="Helvetica-Light" font-size="71.0" fill="#000000" transform="matrix(1.00, 0.00, -0.00, -1.00, 301.9, 475.0)">t</text><text xml:space="preserve" font-family="Helvetica-Light" font-size="71.0" fill="#000000" transform="matrix(1.00, 0.00, -0.00, -1.00, 321.6, 475.0)">e</text><text xml:space="preserve" font-family="Helvetica-Light" font-size="71.0" fill="#000000" transform="matrix(1.00, 0.00, -0.00, -1.00, 361.1, 475.0)">s</text><text xml:space="preserve" font-family="Helvetica-Light" font-size="71.0" fill="#000000" transform="matrix(1.00, 0.00, -0.00, -1.00, 396.6, 475.0)">t</text><text xml:space="preserve" font-family="Helvetica-Light" font-size="71.0" fill="#000000" transform="matrix(1.00, 0.00, -0.00, -1.00, 416.3, 475.0)"> </text><text xml:space="preserve" font-family="Helvetica-Light" font-size="71.0" fill="#000000" transform="matrix(1.00, 0.00, -0.00, -1.00, 436.1, 475.0)">e</text><text xml:space="preserve" font-family="Helvetica-Light" font-size="71.0" fill="#000000" transform="matrix(1.00, 0.00, -0.00, -1.00, 475.5, 475.0)">n</text><text xml:space="preserve" font-family="Helvetica-Light" font-size="71.0" fill="#000000" transform="matrix(1.00, 0.00, -0.00, -1.00, 515.0, 475.0)">e</text><text xml:space="preserve" font-family="Helvetica-Light" font-size="71.0" fill="#000000" transform="matrix(1.00, 0.00, -0.00, -1.00, 554.5, 475.0)">m</text><text xml:space="preserve" font-family="Helvetica-Light" font-size="71.0" fill="#000000" transform="matrix(1.00, 0.00, -0.00, -1.00, 613.6, 475.0)">y</text><text xml:space="preserve" font-family="Helvetica-Light" font-size="71.0" fill="#000000" transform="matrix(1.00, 0.00, -0.00, -1.00, 649.1, 475.0)"> </text><text xml:space="preserve" font-family="Helvetica-Light" font-size="71.0" fill="#000000" transform="matrix(1.00, 0.00, -0.00, -1.00, 668.9, 475.0)">o</text><text xml:space="preserve" font-family="Helvetica-Light" font-size="71.0" fill="#000000" transform="matrix(1.00, 0.00, -0.00, -1.00, 708.3, 475.0)">f</text><text xml:space="preserve" font-family="Helvetica-Light" font-size="71.0" fill="#000000" transform="matrix(1.00, 0.00, -0.00, -1.00, 728.1, 475.0)"> </text><text xml:space="preserve" font-family="Helvetica-Light" font-size="71.0" fill="#000000" transform="matrix(1.00, 0.00, -0.00, -1.00, 747.8, 475.0)">t</text><text xml:space="preserve" font-family="Helvetica-Light" font-size="71.0" fill="#000000" transform="matrix(1.00, 0.00, -0.00, -1.00, 767.6, 475.0)">h</text><text xml:space="preserve" font-family="Helvetica-Light" font-size="71.0" fill="#000000" transform="matrix(1.00, 0.00, -0.00, -1.00, 807.0, 475.0)">e</text><text xml:space="preserve" font-family="Helvetica-Light" font-size="71.0" fill="#000000" transform="matrix(1.00, 0.00, -0.00, -1.00, 846.5, 475.0)"> </text><text xml:space="preserve" font-family="Helvetica-Light" font-size="71.0" fill="#000000" transform="matrix(1.00, 0.00, -0.00, -1.00, 866.2, 475.0)">b</text><text xml:space="preserve" font-family="Helvetica-Light" font-size="71.0" fill="#000000" transform="matrix(1.00, 0.00, -0.00, -1.00, 909.6, 475.0)">e</text><text xml:space="preserve" font-family="Helvetica-Light" font-size="71.0" fill="#000000" transform="matrix(1.00, 0.00, -0.00, -1.00, 949.1, 475.0)">s</text><text xml:space="preserve" font-family="Helvetica-Light" font-size="71.0" fill="#000000" transform="matrix(1.00, 0.00, -0.00, -1.00, 984.6, 475.0)">t</text><text xml:space="preserve" font-family="Helvetica-Light" font-size="71.0" fill="#000000" transform="matrix(1.00, 0.00, -0.00, -1.00, 1004.3, 475.0)"> </text><text xml:space="preserve" font-family="Helvetica-Light" font-size="71.0" fill="#000000" transform="matrix(1.00, 0.00, -0.00, -1.00, 1024.1, 475.0)"> </text><text xml:space="preserve" font-family="Helvetica-Light" font-size="71.0" fill="#000000" transform="matrix(1.00, 0.00, -0.00, -1.00, 267.0, 390.0)">i</text><text xml:space="preserve" font-family="Helvetica-Light" font-size="71.0" fill="#000000" transform="matrix(1.00, 0.00, -0.00, -1.00, 282.8, 390.0)">s</text><text xml:space="preserve" font-family="Helvetica-Light" font-size="71.0" fill="#000000" transform="matrix(1.00, 0.00, -0.00, -1.00, 318.3, 390.0)"> </text><text xml:space="preserve" font-family="Helvetica-Light" font-size="71.0" fill="#000000" transform="matrix(1.00, 0.00, -0.00, -1.00, 338.0, 390.0)">a</text><text xml:space="preserve" font-family="Helvetica-Light" font-size="71.0" fill="#000000" transform="matrix(1.00, 0.00, -0.00, -1.00, 377.5, 390.0)"> </text><text xml:space="preserve" font-family="Helvetica-Light" font-size="71.0" fill="#000000" transform="matrix(1.00, 0.00, -0.00, -1.00, 397.2, 390.0)">l</text><text xml:space="preserve" font-family="Helvetica-Light" font-size="71.0" fill="#000000" transform="matrix(1.00, 0.00, -0.00, -1.00, 413.0, 390.0)">o</text><text xml:space="preserve" font-family="Helvetica-Light" font-size="71.0" fill="#000000" transform="matrix(1.00, 0.00, -0.00, -1.00, 452.5, 390.0)">t</text><text xml:space="preserve" font-family="Helvetica-Light" font-size="71.0" fill="#000000" transform="matrix(1.00, 0.00, -0.00, -1.00, 472.2, 390.0)"> </text><text xml:space="preserve" font-family="Helvetica-Light" font-size="71.0" fill="#000000" transform="matrix(1.00, 0.00, -0.00, -1.00, 491.9, 390.0)">o</text><text xml:space="preserve" font-family="Helvetica-Light" font-size="71.0" fill="#000000" transform="matrix(1.00, 0.00, -0.00, -1.00, 531.4, 390.0)">f</text><text xml:space="preserve" font-family="Helvetica-Light" font-size="71.0" fill="#000000" transform="matrix(1.00, 0.00, -0.00, -1.00, 551.1, 390.0)"> </text><text xml:space="preserve" font-family="Helvetica-Light" font-size="71.0" fill="#000000" transform="matrix(1.00, 0.00, -0.00, -1.00, 570.9, 390.0)">g</text><text xml:space="preserve" font-family="Helvetica-Light" font-size="71.0" fill="#000000" transform="matrix(1.00, 0.00, -0.00, -1.00, 614.3, 390.0)">o</text><text xml:space="preserve" font-family="Helvetica-Light" font-size="71.0" fill="#000000" transform="matrix(1.00, 0.00, -0.00, -1.00, 653.7, 390.0)">o</text><text xml:space="preserve" font-family="Helvetica-Light" font-size="71.0" fill="#000000" transform="matrix(1.00, 0.00, -0.00, -1.00, 693.2, 390.0)">d</text><text xml:space="preserve" font-family="Helvetica-Light" font-size="71.0" fill="#000000" transform="matrix(1.00, 0.00, -0.00, -1.00, 736.6, 390.0)">.</text><text xml:space="preserve" font-family="Helvetica-Light" font-size="31.0" fill="#000000" transform="matrix(1.00, 0.00, -0.00, -1.00, 788.6, 40.6)">@</text><text xml:space="preserve" font-family="Helvetica-Light" font-size="31.0" fill="#000000" transform="matrix(1.00, 0.00, -0.00, -1.00, 813.4, 40.6)">p</text><text xml:space="preserve" font-family="Helvetica-Light" font-size="31.0" fill="#000000" transform="matrix(1.00, 0.00, -0.00, -1.00, 832.3, 40.6)">e</text><text xml:space="preserve" font-family="Helvetica-Light" font-size="31.0" fill="#000000" transform="matrix(1.00, 0.00, -0.00, -1.00, 849.6, 40.6)">t</text><text xml:space="preserve" font-family="Helvetica-Light" font-size="31.0" fill="#000000" transform="matrix(1.00, 0.00, -0.00, -1.00, 858.2, 40.6)">e</text><text xml:space="preserve" font-family="Helvetica-Light" font-size="31.0" fill="#000000" transform="matrix(1.00, 0.00, -0.00, -1.00, 875.4, 40.6)">r</text><text xml:space="preserve" font-family="Helvetica-Light" font-size="31.0" fill="#000000" transform="matrix(1.00, 0.00, -0.00, -1.00, 885.7, 40.6)">r</text><text xml:space="preserve" font-family="Helvetica-Light" font-size="31.0" fill="#000000" transform="matrix(1.00, 0.00, -0.00, -1.00, 896.1, 40.6)">a</text><text xml:space="preserve" font-family="Helvetica-Light" font-size="31.0" fill="#000000" transform="matrix(1.00, 0.00, -0.00, -1.00, 913.3, 40.6)">m</text><text xml:space="preserve" font-family="Helvetica-Light" font-size="31.0" fill="#000000" transform="matrix(1.00, 0.00, -0.00, -1.00, 939.1, 40.6)">s</text><text xml:space="preserve" font-family="Helvetica-Light" font-size="31.0" fill="#000000" transform="matrix(1.00, 0.00, -0.00, -1.00, 954.6, 40.6)">i</text><text xml:space="preserve" font-family="Helvetica-Light" font-size="31.0" fill="#000000" transform="matrix(1.00, 0.00, -0.00, -1.00, 961.5, 40.6)">n</text><text xml:space="preserve" font-family="Helvetica-Light" font-size="31.0" fill="#000000" transform="matrix(1.00, 0.00, -0.00, -1.00, 978.7, 40.6)">g</text><g><clipPath id="clip-14"><path d="M 37.0 68.0 L 76.0 68.0 L 76.0 36.0 L 37.0 36.0 Z M 37.1 68.2 "></path></clipPath><g clip-path="url(#clip-14)"><g><clipPath id="clip-15"><path d="M 48.4 38.3 C 39.5 43.1 34.0 58.1 38.9 64.1 C 42.0 68.0 44.4 67.9 49.8 63.6 L 54.8 59.6 L 58.2 63.1 C 65.0 70.1 73.0 69.9 75.2 62.6 C 76.7 57.7 74.8 52.0 69.8 45.6 C 62.8 36.8 55.7 34.4 48.4 38.3 "></path></clipPath><g clip-path="url(#clip-15)"><image xlink:href="../../615F7CD4-E262-41F7-8138-806EC6AB1FAB/assets/F4423B8FC98C6914CF27899FD0B081AF.jpeg" width="125.00" height="125.00" transform="matrix(0.36, 0.00, -0.00, -0.36, 34.0, 74.0)"></image></g></g></g></g></g></svg>