<?xml version="1.0" encoding="UTF-8" standalone="no"?><svg xmlns="http://www.w3.org/2000/svg" xmlns:xlink="http://www.w3.org/1999/xlink" clip-rule="evenodd" stroke-miterlimit="4.00" viewBox="0 0 1024 768"><desc>SVG generated by Keynote</desc><defs></defs><g transform="matrix(1.00, 0.00, -0.00, -1.00, 0.0, 768.0)"><path d="M 0.0 768.0 L 1024.0 768.0 L 1024.0 0.0 L 0.0 0.0 Z M 0.0 768.0 " fill="#FEFFFF"></path><text xml:space="preserve" font-family="Helvetica-Light" font-size="62.5" fill="#000000" transform="matrix(1.00, 0.00, -0.00, -1.00, 43.0, 583.0)">T</text><text xml:space="preserve" font-family="Helvetica-Light" font-size="62.5" fill="#000000" transform="matrix(1.00, 0.00, -0.00, -1.00, 77.7, 583.0)">h</text><text xml:space="preserve" font-family="Helvetica-Light" font-size="62.5" fill="#000000" transform="matrix(1.00, 0.00, -0.00, -1.00, 112.5, 583.0)">i</text><text xml:space="preserve" font-family="Helvetica-Light" font-size="62.5" fill="#000000" transform="matrix(1.00, 0.00, -0.00, -1.00, 126.3, 583.0)">s</text><text xml:space="preserve" font-family="Helvetica-Light" font-size="62.5" fill="#000000" transform="matrix(1.00, 0.00, -0.00, -1.00, 157.6, 583.0)"> </text><text xml:space="preserve" font-family="Helvetica-Light" font-size="62.5" fill="#000000" transform="matrix(1.00, 0.00, -0.00, -1.00, 175.0, 583.0)">w</text><text xml:space="preserve" font-family="Helvetica-Light" font-size="62.5" fill="#000000" transform="matrix(1.00, 0.00, -0.00, -1.00, 220.1, 583.0)">e</text><text xml:space="preserve" font-family="Helvetica-Light" font-size="62.5" fill="#000000" transform="matrix(1.00, 0.00, -0.00, -1.00, 254.8, 583.0)">e</text><text xml:space="preserve" font-family="Helvetica-Light" font-size="62.5" fill="#000000" transform="matrix(1.00, 0.00, -0.00, -1.00, 289.5, 583.0)">k</text><text xml:space="preserve" font-family="Helvetica-Light" font-size="62.5" fill="#000000" transform="matrix(1.00, 0.00, -0.00, -1.00, 320.8, 583.0)">:</text><text xml:space="preserve" font-family="Helvetica-Light" font-size="62.5" fill="#000000" transform="matrix(1.00, 0.00, -0.00, -1.00, 338.2, 583.0)"> </text><text xml:space="preserve" font-family="Helvetica-Light" font-size="62.5" fill="#000000" transform="matrix(1.00, 0.00, -0.00, -1.00, 43.0, 509.0)">-</text><text xml:space="preserve" font-family="Helvetica-Light" font-size="62.5" fill="#000000" transform="matrix(1.00, 0.00, -0.00, -1.00, 63.8, 509.0)">[</text><text xml:space="preserve" font-family="Helvetica-Light" font-size="62.5" fill="#000000" transform="matrix(1.00, 0.00, -0.00, -1.00, 84.6, 509.0)">x</text><text xml:space="preserve" font-family="Helvetica-Light" font-size="62.5" fill="#000000" transform="matrix(1.00, 0.00, -0.00, -1.00, 115.9, 509.0)">]</text><text xml:space="preserve" font-family="Helvetica-Light" font-size="62.5" fill="#000000" transform="matrix(1.00, 0.00, -0.00, -1.00, 136.7, 509.0)"> </text><text xml:space="preserve" font-family="Helvetica-Light" font-size="62.5" fill="#000000" transform="matrix(1.00, 0.00, -0.00, -1.00, 154.0, 509.0)">A</text><text xml:space="preserve" font-family="Helvetica-Light" font-size="62.5" fill="#000000" transform="matrix(1.00, 0.00, -0.00, -1.00, 195.7, 509.0)">d</text><text xml:space="preserve" font-family="Helvetica-Light" font-size="62.5" fill="#000000" transform="matrix(1.00, 0.00, -0.00, -1.00, 233.9, 509.0)">d</text><text xml:space="preserve" font-family="Helvetica-Light" font-size="62.5" fill="#000000" transform="matrix(1.00, 0.00, -0.00, -1.00, 272.1, 509.0)"> </text><text xml:space="preserve" font-family="Helvetica-Light" font-size="62.5" fill="#000000" transform="matrix(1.00, 0.00, -0.00, -1.00, 289.4, 509.0)">r</text><text xml:space="preserve" font-family="Helvetica-Light" font-size="62.5" fill="#000000" transform="matrix(1.00, 0.00, -0.00, -1.00, 310.2, 509.0)">s</text><text xml:space="preserve" font-family="Helvetica-Light" font-size="62.5" fill="#000000" transform="matrix(1.00, 0.00, -0.00, -1.00, 341.5, 509.0)">s</text><text xml:space="preserve" font-family="Helvetica-Light" font-size="62.5" fill="#000000" transform="matrix(1.00, 0.00, -0.00, -1.00, 372.7, 509.0)"> </text><text xml:space="preserve" font-family="Helvetica-Light" font-size="62.5" fill="#000000" transform="matrix(1.00, 0.00, -0.00, -1.00, 390.1, 509.0)">t</text><text xml:space="preserve" font-family="Helvetica-Light" font-size="62.5" fill="#000000" transform="matrix(1.00, 0.00, -0.00, -1.00, 407.4, 509.0)">o</text><text xml:space="preserve" font-family="Helvetica-Light" font-size="62.5" fill="#000000" transform="matrix(1.00, 0.00, -0.00, -1.00, 442.2, 509.0)"> </text><text xml:space="preserve" font-family="Helvetica-Light" font-size="62.5" fill="#000000" transform="matrix(1.00, 0.00, -0.00, -1.00, 459.6, 509.0)">J</text><text xml:space="preserve" font-family="Helvetica-Light" font-size="62.5" fill="#000000" transform="matrix(1.00, 0.00, -0.00, -1.00, 490.8, 509.0)">e</text><text xml:space="preserve" font-family="Helvetica-Light" font-size="62.5" fill="#000000" transform="matrix(1.00, 0.00, -0.00, -1.00, 525.5, 509.0)">k</text><text xml:space="preserve" font-family="Helvetica-Light" font-size="62.5" fill="#000000" transform="matrix(1.00, 0.00, -0.00, -1.00, 556.8, 509.0)">y</text><text xml:space="preserve" font-family="Helvetica-Light" font-size="62.5" fill="#000000" transform="matrix(1.00, 0.00, -0.00, -1.00, 588.0, 509.0)">l</text><text xml:space="preserve" font-family="Helvetica-Light" font-size="62.5" fill="#000000" transform="matrix(1.00, 0.00, -0.00, -1.00, 601.9, 509.0)">l</text><text xml:space="preserve" font-family="Helvetica-Light" font-size="62.5" fill="#000000" transform="matrix(1.00, 0.00, -0.00, -1.00, 615.8, 509.0)"> </text><text xml:space="preserve" font-family="Helvetica-Light" font-size="62.5" fill="#000000" transform="matrix(1.00, 0.00, -0.00, -1.00, 633.1, 509.0)">b</text><text xml:space="preserve" font-family="Helvetica-Light" font-size="62.5" fill="#000000" transform="matrix(1.00, 0.00, -0.00, -1.00, 671.3, 509.0)">l</text><text xml:space="preserve" font-family="Helvetica-Light" font-size="62.5" fill="#000000" transform="matrix(1.00, 0.00, -0.00, -1.00, 685.2, 509.0)">o</text><text xml:space="preserve" font-family="Helvetica-Light" font-size="62.5" fill="#000000" transform="matrix(1.00, 0.00, -0.00, -1.00, 719.9, 509.0)">g</text><text xml:space="preserve" font-family="Helvetica-Light" font-size="62.5" fill="#000000" transform="matrix(1.00, 0.00, -0.00, -1.00, 758.1, 509.0)"> </text><text xml:space="preserve" font-family="Helvetica-Light" font-size="62.5" fill="#000000" transform="matrix(1.00, 0.00, -0.00, -1.00, 43.0, 435.0)">-</text><text xml:space="preserve" font-family="Helvetica-Light" font-size="62.5" fill="#000000" transform="matrix(1.00, 0.00, -0.00, -1.00, 63.8, 435.0)">[</text><text xml:space="preserve" font-family="Helvetica-Light" font-size="62.5" fill="#000000" transform="matrix(1.00, 0.00, -0.00, -1.00, 84.6, 435.0)"> </text><text xml:space="preserve" font-family="Helvetica-Light" font-size="62.5" fill="#000000" transform="matrix(1.00, 0.00, -0.00, -1.00, 102.0, 435.0)">]</text><text xml:space="preserve" font-family="Helvetica-Light" font-size="62.5" fill="#000000" transform="matrix(1.00, 0.00, -0.00, -1.00, 122.8, 435.0)"> </text><text xml:space="preserve" font-family="Helvetica-Light" font-size="62.5" fill="#000000" transform="matrix(1.00, 0.00, -0.00, -1.00, 140.2, 435.0)">E</text><text xml:space="preserve" font-family="Helvetica-Light" font-size="62.5" fill="#000000" transform="matrix(1.00, 0.00, -0.00, -1.00, 178.3, 435.0)">n</text><text xml:space="preserve" font-family="Helvetica-Light" font-size="62.5" fill="#000000" transform="matrix(1.00, 0.00, -0.00, -1.00, 213.1, 435.0)">a</text><text xml:space="preserve" font-family="Helvetica-Light" font-size="62.5" fill="#000000" transform="matrix(1.00, 0.00, -0.00, -1.00, 247.8, 435.0)">b</text><text xml:space="preserve" font-family="Helvetica-Light" font-size="62.5" fill="#000000" transform="matrix(1.00, 0.00, -0.00, -1.00, 286.0, 435.0)">l</text><text xml:space="preserve" font-family="Helvetica-Light" font-size="62.5" fill="#000000" transform="matrix(1.00, 0.00, -0.00, -1.00, 299.9, 435.0)">e</text><text xml:space="preserve" font-family="Helvetica-Light" font-size="62.5" fill="#000000" transform="matrix(1.00, 0.00, -0.00, -1.00, 334.6, 435.0)"> </text><text xml:space="preserve" font-family="Helvetica-Light" font-size="62.5" fill="#000000" transform="matrix(1.00, 0.00, -0.00, -1.00, 352.0, 435.0)">h</text><text xml:space="preserve" font-family="Helvetica-Light" font-size="62.5" fill="#000000" transform="matrix(1.00, 0.00, -0.00, -1.00, 386.7, 435.0)">t</text><text xml:space="preserve" font-family="Helvetica-Light" font-size="62.5" fill="#000000" transform="matrix(1.00, 0.00, -0.00, -1.00, 404.1, 435.0)">t</text><text xml:space="preserve" font-family="Helvetica-Light" font-size="62.5" fill="#000000" transform="matrix(1.00, 0.00, -0.00, -1.00, 421.4, 435.0)">p</text><text xml:space="preserve" font-family="Helvetica-Light" font-size="62.5" fill="#000000" transform="matrix(1.00, 0.00, -0.00, -1.00, 459.6, 435.0)">s</text><text xml:space="preserve" font-family="Helvetica-Light" font-size="62.5" fill="#000000" transform="matrix(1.00, 0.00, -0.00, -1.00, 490.9, 435.0)"> </text><text xml:space="preserve" font-family="Helvetica-Light" font-size="62.5" fill="#000000" transform="matrix(1.00, 0.00, -0.00, -1.00, 43.0, 287.0)">#</text><text xml:space="preserve" font-family="Helvetica-Light" font-size="62.5" fill="#000000" transform="matrix(1.00, 0.00, -0.00, -1.00, 77.7, 287.0)">w</text><text xml:space="preserve" font-family="Helvetica-Light" font-size="62.5" fill="#000000" transform="matrix(1.00, 0.00, -0.00, -1.00, 122.8, 287.0)">i</text><text xml:space="preserve" font-family="Helvetica-Light" font-size="62.5" fill="#000000" transform="matrix(1.00, 0.00, -0.00, -1.00, 136.7, 287.0)">n</text><text xml:space="preserve" font-family="Helvetica-Light" font-size="62.5" fill="#000000" transform="matrix(1.00, 0.00, -0.00, -1.00, 171.5, 287.0)">:</text><text xml:space="preserve" font-family="Helvetica-Light" font-size="62.5" fill="#000000" transform="matrix(1.00, 0.00, -0.00, -1.00, 188.8, 287.0)"> </text><text xml:space="preserve" font-family="Helvetica-Light" font-size="62.5" fill="#000000" transform="matrix(1.00, 0.00, -0.00, -1.00, 206.2, 287.0)">L</text><text xml:space="preserve" font-family="Helvetica-Light" font-size="62.5" fill="#000000" transform="matrix(1.00, 0.00, -0.00, -1.00, 240.9, 287.0)">e</text><text xml:space="preserve" font-family="Helvetica-Light" font-size="62.5" fill="#000000" transform="matrix(1.00, 0.00, -0.00, -1.00, 275.7, 287.0)">a</text><text xml:space="preserve" font-family="Helvetica-Light" font-size="62.5" fill="#000000" transform="matrix(1.00, 0.00, -0.00, -1.00, 310.4, 287.0)">r</text><text xml:space="preserve" font-family="Helvetica-Light" font-size="62.5" fill="#000000" transform="matrix(1.00, 0.00, -0.00, -1.00, 332.3, 287.0)">n</text><text xml:space="preserve" font-family="Helvetica-Light" font-size="62.5" fill="#000000" transform="matrix(1.00, 0.00, -0.00, -1.00, 367.1, 287.0)">e</text><text xml:space="preserve" font-family="Helvetica-Light" font-size="62.5" fill="#000000" transform="matrix(1.00, 0.00, -0.00, -1.00, 401.8, 287.0)">d</text><text xml:space="preserve" font-family="Helvetica-Light" font-size="62.5" fill="#000000" transform="matrix(1.00, 0.00, -0.00, -1.00, 440.0, 287.0)"> </text><text xml:space="preserve" font-family="Helvetica-Light" font-size="62.5" fill="#000000" transform="matrix(1.00, 0.00, -0.00, -1.00, 457.4, 287.0)">a</text><text xml:space="preserve" font-family="Helvetica-Light" font-size="62.5" fill="#000000" transform="matrix(1.00, 0.00, -0.00, -1.00, 492.1, 287.0)">b</text><text xml:space="preserve" font-family="Helvetica-Light" font-size="62.5" fill="#000000" transform="matrix(1.00, 0.00, -0.00, -1.00, 530.3, 287.0)">o</text><text xml:space="preserve" font-family="Helvetica-Light" font-size="62.5" fill="#000000" transform="matrix(1.00, 0.00, -0.00, -1.00, 565.0, 287.0)">u</text><text xml:space="preserve" font-family="Helvetica-Light" font-size="62.5" fill="#000000" transform="matrix(1.00, 0.00, -0.00, -1.00, 599.8, 287.0)">t</text><text xml:space="preserve" font-family="Helvetica-Light" font-size="62.5" fill="#000000" transform="matrix(1.00, 0.00, -0.00, -1.00, 617.1, 287.0)"> </text><text xml:space="preserve" font-family="Helvetica-Light" font-size="62.5" fill="#000000" transform="matrix(1.00, 0.00, -0.00, -1.00, 634.5, 287.0)">“</text><text xml:space="preserve" font-family="Helvetica-Light" font-size="62.5" fill="#000000" transform="matrix(1.00, 0.00, -0.00, -1.00, 658.8, 287.0)">t</text><text xml:space="preserve" font-family="Helvetica-Light" font-size="62.5" fill="#000000" transform="matrix(1.00, 0.00, -0.00, -1.00, 676.2, 287.0)">h</text><text xml:space="preserve" font-family="Helvetica-Light" font-size="62.5" fill="#000000" transform="matrix(1.00, 0.00, -0.00, -1.00, 710.9, 287.0)">i</text><text xml:space="preserve" font-family="Helvetica-Light" font-size="62.5" fill="#000000" transform="matrix(1.00, 0.00, -0.00, -1.00, 724.8, 287.0)">s</text><text xml:space="preserve" font-family="Helvetica-Light" font-size="62.5" fill="#000000" transform="matrix(1.00, 0.00, -0.00, -1.00, 756.0, 287.0)">”</text><text xml:space="preserve" font-family="Helvetica-Light" font-size="62.5" fill="#000000" transform="matrix(1.00, 0.00, -0.00, -1.00, 780.3, 287.0)"> </text><text xml:space="preserve" font-family="Helvetica-Light" font-size="62.5" fill="#000000" transform="matrix(1.00, 0.00, -0.00, -1.00, 43.0, 213.0)">#</text><text xml:space="preserve" font-family="Helvetica-Light" font-size="62.5" fill="#000000" transform="matrix(1.00, 0.00, -0.00, -1.00, 77.7, 213.0)">p</text><text xml:space="preserve" font-family="Helvetica-Light" font-size="62.5" fill="#000000" transform="matrix(1.00, 0.00, -0.00, -1.00, 115.9, 213.0)">o</text><text xml:space="preserve" font-family="Helvetica-Light" font-size="62.5" fill="#000000" transform="matrix(1.00, 0.00, -0.00, -1.00, 150.7, 213.0)">o</text><text xml:space="preserve" font-family="Helvetica-Light" font-size="62.5" fill="#000000" transform="matrix(1.00, 0.00, -0.00, -1.00, 185.4, 213.0)">r</text><text xml:space="preserve" font-family="Helvetica-Light" font-size="62.5" fill="#000000" transform="matrix(1.00, 0.00, -0.00, -1.00, 206.2, 213.0)">:</text><text xml:space="preserve" font-family="Helvetica-Light" font-size="62.5" fill="#000000" transform="matrix(1.00, 0.00, -0.00, -1.00, 223.6, 213.0)"> </text><text xml:space="preserve" font-family="Helvetica-Light" font-size="62.5" fill="#000000" transform="matrix(1.00, 0.00, -0.00, -1.00, 240.9, 213.0)">T</text><text xml:space="preserve" font-family="Helvetica-Light" font-size="62.5" fill="#000000" transform="matrix(1.00, 0.00, -0.00, -1.00, 275.7, 213.0)">i</text><text xml:space="preserve" font-family="Helvetica-Light" font-size="62.5" fill="#000000" transform="matrix(1.00, 0.00, -0.00, -1.00, 289.5, 213.0)">m</text><text xml:space="preserve" font-family="Helvetica-Light" font-size="62.5" fill="#000000" transform="matrix(1.00, 0.00, -0.00, -1.00, 341.6, 213.0)">e</text><text xml:space="preserve" font-family="Helvetica-Light" font-size="62.5" fill="#000000" transform="matrix(1.00, 0.00, -0.00, -1.00, 376.3, 213.0)"> </text><text xml:space="preserve" font-family="Helvetica-Light" font-size="62.5" fill="#000000" transform="matrix(1.00, 0.00, -0.00, -1.00, 393.7, 213.0)">m</text><text xml:space="preserve" font-family="Helvetica-Light" font-size="62.5" fill="#000000" transform="matrix(1.00, 0.00, -0.00, -1.00, 445.7, 213.0)">a</text><text xml:space="preserve" font-family="Helvetica-Light" font-size="62.5" fill="#000000" transform="matrix(1.00, 0.00, -0.00, -1.00, 480.5, 213.0)">n</text><text xml:space="preserve" font-family="Helvetica-Light" font-size="62.5" fill="#000000" transform="matrix(1.00, 0.00, -0.00, -1.00, 515.2, 213.0)">a</text><text xml:space="preserve" font-family="Helvetica-Light" font-size="62.5" fill="#000000" transform="matrix(1.00, 0.00, -0.00, -1.00, 550.0, 213.0)">g</text><text xml:space="preserve" font-family="Helvetica-Light" font-size="62.5" fill="#000000" transform="matrix(1.00, 0.00, -0.00, -1.00, 588.1, 213.0)">e</text><text xml:space="preserve" font-family="Helvetica-Light" font-size="62.5" fill="#000000" transform="matrix(1.00, 0.00, -0.00, -1.00, 622.9, 213.0)">m</text><text xml:space="preserve" font-family="Helvetica-Light" font-size="62.5" fill="#000000" transform="matrix(1.00, 0.00, -0.00, -1.00, 674.9, 213.0)">e</text><text xml:space="preserve" font-family="Helvetica-Light" font-size="62.5" fill="#000000" transform="matrix(1.00, 0.00, -0.00, -1.00, 709.7, 213.0)">n</text><text xml:space="preserve" font-family="Helvetica-Light" font-size="62.5" fill="#000000" transform="matrix(1.00, 0.00, -0.00, -1.00, 744.4, 213.0)">t</text><text xml:space="preserve" font-family="Helvetica-Light" font-size="31.0" fill="#000000" transform="matrix(1.00, 0.00, -0.00, -1.00, 788.6, 40.6)">@</text><text xml:space="preserve" font-family="Helvetica-Light" font-size="31.0" fill="#000000" transform="matrix(1.00, 0.00, -0.00, -1.00, 813.4, 40.6)">p</text><text xml:space="preserve" font-family="Helvetica-Light" font-size="31.0" fill="#000000" transform="matrix(1.00, 0.00, -0.00, -1.00, 832.3, 40.6)">e</text><text xml:space="preserve" font-family="Helvetica-Light" font-size="31.0" fill="#000000" transform="matrix(1.00, 0.00, -0.00, -1.00, 849.6, 40.6)">t</text><text xml:space="preserve" font-family="Helvetica-Light" font-size="31.0" fill="#000000" transform="matrix(1.00, 0.00, -0.00, -1.00, 858.2, 40.6)">e</text><text xml:space="preserve" font-family="Helvetica-Light" font-size="31.0" fill="#000000" transform="matrix(1.00, 0.00, -0.00, -1.00, 875.4, 40.6)">r</text><text xml:space="preserve" font-family="Helvetica-Light" font-size="31.0" fill="#000000" transform="matrix(1.00, 0.00, -0.00, -1.00, 885.7, 40.6)">r</text><text xml:space="preserve" font-family="Helvetica-Light" font-size="31.0" fill="#000000" transform="matrix(1.00, 0.00, -0.00, -1.00, 896.1, 40.6)">a</text><text xml:space="preserve" font-family="Helvetica-Light" font-size="31.0" fill="#000000" transform="matrix(1.00, 0.00, -0.00, -1.00, 913.3, 40.6)">m</text><text xml:space="preserve" font-family="Helvetica-Light" font-size="31.0" fill="#000000" transform="matrix(1.00, 0.00, -0.00, -1.00, 939.1, 40.6)">s</text><text xml:space="preserve" font-family="Helvetica-Light" font-size="31.0" fill="#000000" transform="matrix(1.00, 0.00, -0.00, -1.00, 954.6, 40.6)">i</text><text xml:space="preserve" font-family="Helvetica-Light" font-size="31.0" fill="#000000" transform="matrix(1.00, 0.00, -0.00, -1.00, 961.5, 40.6)">n</text><text xml:space="preserve" font-family="Helvetica-Light" font-size="31.0" fill="#000000" transform="matrix(1.00, 0.00, -0.00, -1.00, 978.7, 40.6)">g</text><g><clipPath id="clip-12"><path d="M 37.0 68.0 L 76.0 68.0 L 76.0 36.0 L 37.0 36.0 Z M 37.1 68.2 "></path></clipPath><g clip-path="url(#clip-12)"><g><clipPath id="clip-13"><path d="M 48.4 38.3 C 39.5 43.1 34.0 58.1 38.9 64.1 C 42.0 68.0 44.4 67.9 49.8 63.6 L 54.8 59.6 L 58.2 63.1 C 65.0 70.1 73.0 69.9 75.2 62.6 C 76.7 57.7 74.8 52.0 69.8 45.6 C 62.8 36.8 55.7 34.4 48.4 38.3 "></path></clipPath><g clip-path="url(#clip-13)"><image xlink:href="../../615F7CD4-E262-41F7-8138-806EC6AB1FAB/assets/F4423B8FC98C6914CF27899FD0B081AF.jpeg" width="125.00" height="125.00" transform="matrix(0.36, 0.00, -0.00, -0.36, 34.0, 74.0)"></image></g></g></g></g></g></svg>